SplineFontDB: 3.2
FontName: CorkBoardIcons
FullName: CorkBoard Icons Regular
FamilyName: CorkBoardIcons
Weight: Regular
Copyright: Copyright (c) 2024, Skai Jay
UComments: "2024-5-15: Created with FontForge (http://fontforge.org)"
Version: 001.000
ItalicAngle: 0
UnderlinePosition: -100
UnderlineWidth: 50
Ascent: 800
Descent: 200
InvalidEm: 0
LayerCount: 2
Layer: 0 0 "Back" 1
Layer: 1 0 "Fore" 0
XUID: [1021 729 -1943746794 4166]
OS2Version: 0
OS2_WeightWidthSlopeOnly: 0
OS2_UseTypoMetrics: 1
CreationTime: 1715826844
ModificationTime: 1716404729
OS2TypoAscent: 0
OS2TypoAOffset: 1
OS2TypoDescent: 0
OS2TypoDOffset: 1
OS2TypoLinegap: 0
OS2WinAscent: 0
OS2WinAOffset: 1
OS2WinDescent: 0
OS2WinDOffset: 1
HheadAscent: 0
HheadAOffset: 1
HheadDescent: 0
HheadDOffset: 1
OS2Vendor: 'PfEd'
MarkAttachClasses: 1
DEI: 91125
Encoding: ISO8859-1
UnicodeInterp: none
NameList: AGL For New Fonts
DisplaySize: -72
AntiAlias: 1
FitToEm: 0
WinInfo: 0 26 10
BeginPrivate: 0
EndPrivate
Grid
521.893554688 -168.291015625 m 6
 521.893554688 -168.291015625 462.154296875 -56.7216796875 462.154296875 -56.7626953125 c 5
 460.911132812 -54.443359375 460.1875 -51.8759765625 460.1875 -49.1845703125 c 4
 460.1875 -38.5400390625 471.006835938 -29.9267578125 484.258789062 -29.9267578125 c 6
 603.73828125 -29.9267578125 l 4
 617.041015625 -29.9267578125 627.809570312 -38.5830078125 627.809570312 -49.1845703125 c 4
 627.809570312 -51.8759765625 627.135742188 -54.443359375 625.89453125 -56.7626953125 c 6
 625.89453125 -56.7626953125 566.155273438 -168.291015625 566.102539062 -168.291015625 c 4
 562.427734375 -175.165039062 553.9375 -179.96875 543.999023438 -179.96875 c 4
 534.110351562 -179.96875 525.569335938 -175.165039062 521.893554688 -168.291015625 c 6
445.38671875 681.571289062 m 2
 432.107421875 681.571289062 421.326171875 670.790039062 421.326171875 657.510742188 c 0
 421.326171875 651.76953125 423.34765625 646.48046875 426.708984375 642.342773438 c 1

StartChar: l
Encoding: 108 108 0
Width: 1066
Flags: HW
LayerCount: 2
Fore
SplineSet
158.833984375 566.94921875 m 0
 158.833984375 626.665039062 181.646484375 717.209960938 320.03125 717.209960938 c 0
 426.913085938 717.209960938 514.247070312 630.403320312 516.8359375 522.5625 c 0
 518.010742188 473.599609375 592.23046875 473.599609375 593.404296875 522.5625 c 0
 596 630.454101562 683.333007812 717.25390625 790.209960938 717.25390625 c 0
 974.84765625 717.25390625 1038.40429688 539.458984375 778.651367188 217.331054688 c 0
 692.517578125 110.517578125 598.78125 21.046875 555.1171875 -18.8974609375 c 0
 494.264648438 36.7685546875 158.833984375 353.297851562 158.833984375 566.94921875 c 0
555.110351562 658.610351562 m 1
 429.350585938 871.875 82.234375 828.725585938 82.234375 566.94921875 c 0
 82.234375 291.512695312 503.475585938 -76.296875 530.12109375 -99.29296875 c 0
 544.485351562 -111.689453125 565.754882812 -111.689453125 580.119140625 -99.29296875 c 0
 606.911132812 -76.17578125 1028 291.595703125 1028 567 c 0
 1028 588.390625 1021.97070312 793.846679688 790.209960938 793.846679688 c 0
 689.916015625 793.846679688 602.697265625 739.342773438 555.110351562 658.610351562 c 1
EndSplineSet
EndChar

StartChar: s
Encoding: 115 115 1
Width: 1070
Flags: HW
LayerCount: 2
Fore
SplineSet
585.297851562 779.840820312 m 0
 600.893554688 785.7421875 618.840820312 782.478515625 630.775390625 771.571289062 c 2
 1006.36328125 436.14453125 l 2
 1022.22363281 421.979492188 1022.72167969 398.737304688 1007.87402344 383.658203125 c 2
 632.288085938 10.08984375 l 2
 620.727539062 -1.6474609375 602.448242188 -5.6630859375 586.31640625 -0.00390625 c 0
 570.185546875 5.6533203125 558.268554688 19.865234375 559.536132812 35.6044921875 c 2
 575.21484375 230.229492188 l 1
 554.349609375 230.229492188 l 2
 379.81640625 230.229492188 226.635742188 3.3544921875 185.890625 -113.196289062 c 0
 179.629882812 -131.099609375 160.03125 -142.16796875 139.709960938 -139.274414062 c 0
 119.389648438 -136.377929688 104.40625 -120.3828125 104.40625 -101.5859375 c 0
 62.4599609375 302.904296875 346.875 530.701171875 575.21484375 549.571289062 c 1
 559.536132812 744.6015625 l 2
 558.30078125 759.978515625 569.702148438 773.936523438 585.297851562 779.840820312 c 0
643 652.521484375 m 1
 658.6796875 511.837890625 l 2
 661.012695312 490.903320312 639.995117188 473.696289062 616.946289062 473.696289062 c 2
 596.081054688 473.696289062 l 2
 308.357421875 473.696289062 153.623046875 133.616210938 161.119140625 -16.4482421875 c 1
 219.94921875 129.181640625 415.891601562 306.51171875 554.349609375 306.51171875 c 2
 616.946289062 306.51171875 l 2
 639.995117188 306.51171875 661.00390625 289.306640625 658.6796875 268.370117188 c 2
 643 135 l 1
 919.34765625 407.79296875 l 1
 643 652.521484375 l 1
EndSplineSet
EndChar

StartChar: C
Encoding: 67 67 2
Width: 1089
Flags: HW
LayerCount: 2
Fore
SplineSet
521.893554688 -168.291015625 m 2
 521.893554688 -168.291015625 462.154296875 -56.7216796875 462.154296875 -56.7626953125 c 1
 460.911132812 -54.443359375 460.1875 -51.8759765625 460.1875 -49.1845703125 c 0
 460.1875 -38.5400390625 471.006835938 -29.9267578125 484.258789062 -29.9267578125 c 2
 603.73828125 -29.9267578125 l 0
 617.041015625 -29.9267578125 627.809570312 -38.5830078125 627.809570312 -49.1845703125 c 0
 627.809570312 -51.8759765625 627.135742188 -54.443359375 625.89453125 -56.7626953125 c 2
 625.89453125 -56.7626953125 566.155273438 -168.291015625 566.102539062 -168.291015625 c 0
 562.427734375 -175.165039062 553.9375 -179.96875 543.999023438 -179.96875 c 0
 534.110351562 -179.96875 525.569335938 -175.165039062 521.893554688 -168.291015625 c 2
445.38671875 681.571289062 m 2
 432.107421875 681.571289062 421.326171875 670.790039062 421.326171875 657.510742188 c 0
 421.326171875 651.76953125 423.34765625 646.48046875 426.708984375 642.342773438 c 1
 426.701171875 642.357421875 822.768554688 154.662109375 822.768554688 154.662109375 c 2
 833.969726562 140.869140625 840.686523438 123.290039062 840.686523438 104.153320312 c 0
 840.686523438 59.8876953125 804.776367188 23.8955078125 760.509765625 23.8955078125 c 0
 760.482421875 23.9501953125 307.025390625 23.8955078125 307.025390625 23.8955078125 c 2
 262.759765625 23.8955078125 226.822265625 59.8330078125 226.822265625 104.099609375 c 0
 226.822265625 120.220703125 231.637695312 135.319335938 239.836914062 147.897460938 c 1
 239.787109375 147.814453125 381.995117188 366.44140625 381.995117188 366.44140625 c 2
 386.290039062 373.028320312 393.724609375 377.38671875 402.166992188 377.38671875 c 0
 409.706054688 377.38671875 416.41796875 373.904296875 420.830078125 368.46875 c 0
 420.852539062 368.477539062 463.319335938 316.153320312 463.319335938 316.153320312 c 2
 466.678710938 312.013671875 468.694335938 306.741210938 468.694335938 301 c 0
 468.694335938 296.1640625 467.256835938 291.619140625 464.798828125 287.84375 c 1
 464.8046875 287.884765625 390.482421875 173.3828125 390.482421875 173.3828125 c 2
 388.032446469 169.609399657 386.592773438 165.104492188 386.592773438 160.267578125 c 0
 386.592773438 146.98828125 397.359375 136.182617188 410.640625 136.182617188 c 0
 410.655273438 136.208007812 642.587890625 136.182617188 642.587890625 136.182617188 c 2
 655.869140625 136.182617188 666.650390625 146.963867188 666.650390625 160.243164062 c 0
 666.650390625 165.984375 664.626953125 171.2734375 661.267578125 175.413085938 c 1
 661.275390625 175.396484375 265.206054688 663.091796875 265.206054688 663.091796875 c 2
 254.004882812 676.884765625 247.290039062 694.462890625 247.290039062 713.599609375 c 0
 247.290039062 757.866210938 283.200195312 793.857421875 327.466796875 793.857421875 c 0
 327.494140625 793.803710938 780.948242188 793.857421875 780.948242188 793.857421875 c 2
 825.21484375 793.857421875 861.154296875 757.919921875 861.154296875 713.654296875 c 0
 861.154296875 697.533203125 856.338867188 682.434570312 848.139648438 669.85546875 c 1
 848.189453125 669.939453125 706.169921875 451.875 706.169921875 451.875 c 2
 701.876953125 445.28515625 694.442382812 440.927734375 686 440.927734375 c 0
 678.458984375 440.927734375 671.749023438 444.41015625 667.336914062 449.844726562 c 0
 667.3125 449.836914062 624.84765625 502.163085938 624.84765625 502.163085938 c 2
 621.486328125 506.30078125 619.47265625 511.573242188 619.47265625 517.314453125 c 0
 619.47265625 522.150390625 620.908203125 526.697265625 623.368164062 530.470703125 c 1
 623.362304688 530.4296875 697.4921875 644.37109375 697.4921875 644.37109375 c 2
 699.948435511 648.145411372 701.381835938 652.649414062 701.381835938 657.485351562 c 0
 701.381835938 670.764648438 690.615234375 681.571289062 677.3359375 681.571289062 c 0
 677.321289062 681.547851562 445.38671875 681.571289062 445.38671875 681.571289062 c 2
EndSplineSet
EndChar

StartChar: Idieresis
Encoding: 207 207 3
Width: 1016
Flags: HW
LayerCount: 2
Fore
SplineSet
239.836914062 147.897460938 m 1
 239.787109375 147.814453125 381.995117188 366.44140625 381.995117188 366.44140625 c 2
 386.396484375 373.193359375 393.724609375 377.38671875 402.166992188 377.38671875 c 0
 409.706054688 377.38671875 416.41796875 373.904296875 420.830078125 368.46875 c 0
 420.852539062 368.477539062 463.319335938 316.153320312 463.319335938 316.153320312 c 2
 466.678710938 312.013671875 468.694335938 306.741210938 468.694335938 301 c 0
 468.694335938 296.1640625 467.256835938 291.619140625 464.798828125 287.84375 c 1
 464.8046875 287.884765625 390.610428825 173.814430211 390.482421875 173.3828125 c 2
 388.030763697 169.606807878 386.592773438 165.104492188 386.592773438 160.267578125 c 1
 310.005859375 171.541992188 300.719726562 16.5927734375 239.836914062 147.897460938 c 1
EndSplineSet
EndChar

StartChar: ae
Encoding: 230 230 4
Width: 1016
Flags: HW
LayerCount: 2
Fore
SplineSet
521.893554688 -168.291015625 m 2
 521.893554688 -168.291015625 462.154296875 -56.7216796875 462.154296875 -56.7626953125 c 1
 460.911132812 -54.443359375 460.1875 -51.8759765625 460.1875 -49.1845703125 c 0
 460.1875 -38.5400390625 471.006835938 -29.9267578125 484.258789062 -29.9267578125 c 2
 603.73828125 -29.9267578125 l 0
 617.041015625 -29.9267578125 627.809570312 -38.5830078125 627.809570312 -49.1845703125 c 0
 627.809570312 -51.8759765625 627.135742188 -54.443359375 625.89453125 -56.7626953125 c 2
 625.89453125 -56.7626953125 566.155273438 -168.291015625 566.102539062 -168.291015625 c 0
 562.427734375 -175.165039062 553.9375 -179.96875 543.999023438 -179.96875 c 0
 534.110351562 -179.96875 525.569335938 -175.165039062 521.893554688 -168.291015625 c 2
445.38671875 681.571289062 m 2
 432.107421875 681.571289062 421.326171875 670.790039062 421.326171875 657.510742188 c 0
 421.326171875 651.76953125 423.34765625 646.48046875 426.708984375 642.342773438 c 1
 426.701171875 642.357421875 822.768554688 154.662109375 822.768554688 154.662109375 c 2
 833.969726562 140.869140625 840.686523438 123.290039062 840.686523438 104.153320312 c 0
 840.686523438 59.8876953125 804.776367188 23.8955078125 760.509765625 23.8955078125 c 0
 760.482421875 23.9501953125 307.025390625 23.8955078125 307.025390625 23.8955078125 c 2
 262.759765625 23.8955078125 226.822265625 59.8330078125 226.822265625 104.099609375 c 0
 226.822265625 120.220703125 231.637695312 135.319335938 239.836914062 147.897460938 c 1
 239.787109375 147.814453125 381.995117188 366.44140625 381.995117188 366.44140625 c 2
 386.290039062 373.028320312 393.724609375 377.38671875 402.166992188 377.38671875 c 0
 409.706054688 377.38671875 416.41796875 373.904296875 420.830078125 368.46875 c 0
 420.852539062 368.477539062 463.319335938 316.153320312 463.319335938 316.153320312 c 2
 466.678710938 312.013671875 468.694335938 306.741210938 468.694335938 301 c 0
 468.694335938 296.1640625 467.256835938 291.619140625 464.798828125 287.84375 c 1
 464.8046875 287.884765625 390.482421875 173.3828125 390.482421875 173.3828125 c 2
 388.031453503 169.607870307 386.592773438 165.104492188 386.592773438 160.267578125 c 0
 386.592773438 146.98828125 397.359375 136.182617188 410.640625 136.182617188 c 0
 410.655273438 136.208007812 642.587890625 136.182617188 642.587890625 136.182617188 c 2
 655.869140625 136.182617188 666.650390625 146.963867188 666.650390625 160.243164062 c 0
 666.650390625 165.984375 664.626953125 171.2734375 661.267578125 175.413085938 c 1
 661.275390625 175.396484375 265.206054688 663.091796875 265.206054688 663.091796875 c 2
 254.004882812 676.884765625 247.290039062 694.462890625 247.290039062 713.599609375 c 0
 247.290039062 757.866210938 283.200195312 793.857421875 327.466796875 793.857421875 c 0
 327.494140625 793.803710938 780.948242188 793.857421875 780.948242188 793.857421875 c 2
 825.21484375 793.857421875 861.154296875 757.919921875 861.154296875 713.654296875 c 0
 861.154296875 697.533203125 856.338867188 682.434570312 848.139648438 669.85546875 c 1
 848.189453125 669.939453125 706.169921875 451.875 706.169921875 451.875 c 2
 701.876953125 445.28515625 694.442382812 440.927734375 686 440.927734375 c 0
 678.458984375 440.927734375 671.749023438 444.41015625 667.336914062 449.844726562 c 0
 667.3125 449.836914062 624.84765625 502.163085938 624.84765625 502.163085938 c 2
 621.486328125 506.30078125 619.47265625 511.573242188 619.47265625 517.314453125 c 0
 619.47265625 522.150390625 620.908203125 526.697265625 623.368164062 530.470703125 c 1
 623.362304688 530.4296875 697.4921875 644.37109375 697.4921875 644.37109375 c 2
 699.941352589 648.13452762 701.381835938 652.649414062 701.381835938 657.485351562 c 0
 701.381835938 670.764648438 690.615234375 681.571289062 677.3359375 681.571289062 c 0
 677.321289062 681.547851562 445.38671875 681.571289062 445.38671875 681.571289062 c 2
EndSplineSet
Comment: "mid loading frame"
EndChar

StartChar: Uacute
Encoding: 218 218 5
Width: 1016
Flags: HW
LayerCount: 2
Fore
SplineSet
505.603515625 544.857421875 m 1
 621.458007812 402.544921875 822.768554688 154.662109375 822.768554688 154.662109375 c 2
 834.1796875 140.624023438 840.686523438 123.290039062 840.686523438 104.153320312 c 0
 840.686523438 59.8876953125 804.776367188 23.8955078125 760.509765625 23.8955078125 c 0
 760.482421875 23.9501953125 307.025390625 23.8955078125 307.025390625 23.8955078125 c 2
 262.759765625 23.8955078125 226.822265625 59.8330078125 226.822265625 104.099609375 c 0
 226.822265625 120.220703125 231.637695312 135.319335938 239.836914062 147.897460938 c 1
 239.787109375 147.814453125 381.995117188 366.44140625 381.995117188 366.44140625 c 2
 386.290039062 373.028320312 393.724609375 377.38671875 402.166992188 377.38671875 c 0
 409.706054688 377.38671875 416.41796875 373.904296875 420.830078125 368.46875 c 0
 420.852539062 368.477539062 463.319335938 316.153320312 463.319335938 316.153320312 c 2
 466.678710938 312.013671875 468.694335938 306.741210938 468.694335938 301 c 0
 468.694335938 296.1640625 467.256835938 291.619140625 464.798828125 287.84375 c 1
 464.8046875 287.884765625 390.482421875 173.3828125 390.482421875 173.3828125 c 2
 388.036364736 169.615434509 386.592773438 165.104492188 386.592773438 160.267578125 c 0
 386.592773438 146.98828125 397.359375 136.182617188 410.640625 136.182617188 c 0
 410.655273438 136.208007812 642.587890625 136.182617188 642.587890625 136.182617188 c 2
 655.869140625 136.182617188 666.650390625 146.963867188 666.650390625 160.243164062 c 0
 666.650390625 165.984375 664.626953125 171.2734375 661.267578125 175.413085938 c 1
 661.272460938 175.401367188 476.752929688 402.606445312 359.603515625 546.857421875 c 1
 348.595703125 665.130859375 442.349609375 574.599609375 505.603515625 544.857421875 c 1
EndSplineSet
EndChar

StartChar: Ugrave
Encoding: 217 217 6
Width: 1016
Flags: HW
LayerCount: 2
Fore
SplineSet
523.509765625 522.857421875 m 1
 641.005859375 378.473632812 822.768554688 154.662109375 822.768554688 154.662109375 c 2
 834.178710938 140.623046875 840.686523438 123.290039062 840.686523438 104.153320312 c 0
 840.686523438 59.8876953125 804.776367188 23.8955078125 760.509765625 23.8955078125 c 0
 760.482421875 23.9501953125 307.025390625 23.8955078125 307.025390625 23.8955078125 c 2
 262.759765625 23.8955078125 226.822265625 59.8330078125 226.822265625 104.099609375 c 0
 226.822265625 120.220703125 231.637695312 135.319335938 239.836914062 147.897460938 c 1
 239.787109375 147.814453125 381.995117188 366.44140625 381.995117188 366.44140625 c 2
 386.290039062 373.028320312 393.724609375 377.38671875 402.166992188 377.38671875 c 0
 409.706054688 377.38671875 416.41796875 373.904296875 420.830078125 368.46875 c 0
 420.852539062 368.477539062 463.319335938 316.153320312 463.319335938 316.153320312 c 2
 466.678710938 312.013671875 468.694335938 306.741210938 468.694335938 301 c 0
 468.694335938 296.1640625 467.256835938 291.619140625 464.798828125 287.84375 c 1
 464.8046875 287.884765625 390.482421875 173.3828125 390.482421875 173.3828125 c 2
 388.031025555 169.607211188 386.592773438 165.104492188 386.592773438 160.267578125 c 0
 386.592773438 146.98828125 397.359375 136.182617188 410.640625 136.182617188 c 0
 410.655273438 136.208007812 642.587890625 136.182617188 642.587890625 136.182617188 c 2
 655.869140625 136.182617188 666.650390625 146.963867188 666.650390625 160.243164062 c 0
 666.650390625 165.984375 664.626953125 171.2734375 661.267578125 175.413085938 c 1
 661.272460938 175.403320312 532.125976562 334.424804688 421.325195312 470.857421875 c 1
 396.353515625 584.634765625 485.515625 526.392578125 523.509765625 522.857421875 c 1
EndSplineSet
EndChar

StartChar: Ocircumflex
Encoding: 212 212 7
Width: 1016
Flags: HW
LayerCount: 2
Fore
SplineSet
840.686523438 104.153320312 m 1
 840.686523438 59.8876953125 791.466796875 21.857421875 760.509765625 23.8955078125 c 0
 760.44921875 23.8994140625 307.025390625 23.8955078125 307.025390625 23.8955078125 c 2
 262.759765625 23.8955078125 226.822265625 59.8330078125 226.822265625 104.099609375 c 0
 226.822265625 120.220703125 231.637695312 135.319335938 239.836914062 147.897460938 c 1
 239.787109375 147.814453125 381.995117188 366.44140625 381.995117188 366.44140625 c 2
 386.290039062 373.028320312 393.724609375 377.38671875 402.166992188 377.38671875 c 0
 409.706054688 377.38671875 416.41796875 373.904296875 420.830078125 368.46875 c 0
 420.852539062 368.477539062 463.319335938 316.153320312 463.319335938 316.153320312 c 2
 466.678710938 312.013671875 468.694335938 306.741210938 468.694335938 301 c 0
 468.694335938 296.1640625 467.256835938 291.619140625 464.798828125 287.84375 c 1
 464.8046875 287.884765625 390.482421875 173.3828125 390.482421875 173.3828125 c 2
 388.031726061 169.608290096 386.592773438 165.104492188 386.592773438 160.267578125 c 0
 386.592773438 146.98828125 397.359375 136.182617188 410.640625 136.182617188 c 0
 410.655273438 136.208007812 642.364257812 135.959960938 642.587890625 136.182617188 c 2
 655.869140625 136.182617188 666.650390625 146.963867188 666.650390625 160.243164062 c 1
 706.112304688 228.797851562 782.745117188 120.489257812 840.686523438 104.153320312 c 1
EndSplineSet
EndChar

StartChar: Ntilde
Encoding: 209 209 8
Width: 1016
Flags: HW
LayerCount: 2
Fore
SplineSet
307.025390625 23.8955078125 m 1
 262.466796875 23.8916015625 226.822265625 59.8330078125 226.822265625 104.099609375 c 0
 226.822265625 120.220703125 231.637695312 135.319335938 239.836914062 147.897460938 c 1
 239.787109375 147.814453125 381.995117188 366.44140625 381.995117188 366.44140625 c 2
 386.290039062 373.028320312 393.724609375 377.38671875 402.166992188 377.38671875 c 0
 409.706054688 377.38671875 416.41796875 373.904296875 420.830078125 368.46875 c 0
 420.852539062 368.477539062 463.319335938 316.153320312 463.319335938 316.153320312 c 2
 466.678710938 312.013671875 468.694335938 306.741210938 468.694335938 301 c 0
 468.694335938 296.1640625 467.256835938 291.619140625 464.798828125 287.84375 c 1
 464.8046875 287.884765625 390.482421875 173.3828125 390.482421875 173.3828125 c 2
 388.030697504 169.606705929 386.592773438 165.104492188 386.592773438 160.267578125 c 0
 386.592773438 146.98828125 397.359375 136.182617188 410.640625 136.182617188 c 1
 438.611328125 135.220703125 524.063476562 32.8828125 307.025390625 23.8955078125 c 1
EndSplineSet
EndChar

StartChar: Eth
Encoding: 208 208 9
Width: 1016
Flags: HW
LayerCount: 2
Fore
SplineSet
226.822265625 104.099609375 m 1
 226.822265625 120.220703125 231.637695312 135.319335938 239.836914062 147.897460938 c 1
 239.787109375 147.814453125 381.995117188 366.44140625 381.995117188 366.44140625 c 2
 386.290039062 373.028320312 393.724609375 377.38671875 402.166992188 377.38671875 c 0
 409.706054688 377.38671875 416.41796875 373.904296875 420.830078125 368.46875 c 0
 420.852539062 368.477539062 463.319335938 316.153320312 463.319335938 316.153320312 c 2
 466.678710938 312.013671875 468.694335938 306.741210938 468.694335938 301 c 0
 468.694335938 296.1640625 467.256835938 291.619140625 464.798828125 287.84375 c 1
 464.8046875 287.884765625 390.482421875 173.3828125 390.482421875 173.3828125 c 2
 388.030176216 169.605903049 386.592773438 165.104492188 386.592773438 160.267578125 c 0
 386.592773438 146.98828125 397.359375 136.182617188 410.640625 136.182617188 c 1
 350.26171875 121.573242188 398.466796875 -32.142578125 226.822265625 104.099609375 c 1
EndSplineSet
EndChar

StartChar: Ograve
Encoding: 210 210 10
Width: 1016
Flags: HW
LayerCount: 2
Fore
SplineSet
515.466796875 23.9150390625 m 1
 408.512695312 23.908203125 307.025390625 23.8955078125 307.025390625 23.8955078125 c 2
 262.466796875 23.8916015625 226.822265625 59.8330078125 226.822265625 104.099609375 c 0
 226.822265625 120.220703125 231.637695312 135.319335938 239.836914062 147.897460938 c 1
 239.787109375 147.814453125 381.995117188 366.44140625 381.995117188 366.44140625 c 2
 386.290039062 373.028320312 393.724609375 377.38671875 402.166992188 377.38671875 c 0
 409.706054688 377.38671875 416.41796875 373.904296875 420.830078125 368.46875 c 0
 420.852539062 368.477539062 463.319335938 316.153320312 463.319335938 316.153320312 c 2
 466.678710938 312.013671875 468.694335938 306.741210938 468.694335938 301 c 0
 468.694335938 296.1640625 467.256835938 291.619140625 464.798828125 287.84375 c 1
 464.8046875 287.884765625 390.482421875 173.3828125 390.482421875 173.3828125 c 2
 388.030850397 169.606941412 386.592773438 165.104492188 386.592773438 160.267578125 c 0
 386.592773438 146.98828125 397.359375 136.182617188 410.640625 136.182617188 c 0
 410.65234375 136.182617188 449.537109375 136.1953125 495.466796875 136.193359375 c 0
 609.607421875 136.189453125 515.466796875 23.9150390625 515.466796875 23.9150390625 c 1
EndSplineSet
EndChar

StartChar: Oacute
Encoding: 211 211 11
Width: 1016
Flags: HW
LayerCount: 2
Fore
SplineSet
593.466796875 136.088867188 m 1
 525.392578125 136.083007812 410.661132812 136.182617188 410.640625 136.182617188 c 0
 397.359375 136.182617188 386.592773438 146.98828125 386.592773438 160.267578125 c 0
 386.592773438 165.104492188 388.03076899 169.606816031 390.482421875 173.3828125 c 2
 390.482421875 173.3828125 464.8046875 287.884765625 464.798828125 287.84375 c 1
 467.256835938 291.619140625 468.694335938 296.1640625 468.694335938 301 c 0
 468.694335938 306.741210938 466.678710938 312.013671875 463.319335938 316.153320312 c 2
 463.319335938 316.153320312 420.852539062 368.477539062 420.830078125 368.46875 c 0
 416.41796875 373.904296875 409.706054688 377.38671875 402.166992188 377.38671875 c 0
 393.724609375 377.38671875 386.290039062 373.028320312 381.995117188 366.44140625 c 2
 381.995117188 366.44140625 239.787109375 147.814453125 239.836914062 147.897460938 c 1
 231.637695312 135.319335938 226.822265625 120.220703125 226.822265625 104.099609375 c 0
 226.822265625 59.8330078125 262.466796875 23.8955078125 307.025390625 23.8955078125 c 2
 307.025390625 23.8955078125 519.388671875 23.8974609375 653.466796875 23.8974609375 c 1
 689.09765625 106.110351562 608.547851562 95.0341796875 593.466796875 136.088867188 c 1
EndSplineSet
EndChar

StartChar: multiply
Encoding: 215 215 12
Width: 1016
Flags: HW
LayerCount: 2
Fore
SplineSet
636.633789062 383.857421875 m 1
 672.438476562 339.76953125 710.828125 292.5 740.5859375 255.857421875 c 1
 788.71875 196.58984375 822.768554688 154.662109375 822.768554688 154.662109375 c 2
 834.172851562 140.619140625 840.686523438 123.290039062 840.686523438 104.153320312 c 0
 840.686523438 59.8876953125 804.776367188 23.8955078125 760.509765625 23.8955078125 c 0
 760.482421875 23.9501953125 307.025390625 23.8955078125 307.025390625 23.8955078125 c 2
 262.759765625 23.8955078125 226.822265625 59.8330078125 226.822265625 104.099609375 c 0
 226.822265625 120.220703125 231.637695312 135.319335938 239.836914062 147.897460938 c 1
 239.787109375 147.814453125 381.995117188 366.44140625 381.995117188 366.44140625 c 2
 386.290039062 373.028320312 393.724609375 377.38671875 402.166992188 377.38671875 c 0
 409.706054688 377.38671875 416.41796875 373.904296875 420.830078125 368.46875 c 0
 420.852539062 368.477539062 463.319335938 316.153320312 463.319335938 316.153320312 c 2
 466.678710938 312.013671875 468.694335938 306.741210938 468.694335938 301 c 0
 468.694335938 296.1640625 467.256835938 291.619140625 464.798828125 287.84375 c 1
 464.8046875 287.884765625 390.482421875 173.3828125 390.482421875 173.3828125 c 2
 388.031235113 169.607533946 386.592773438 165.104492188 386.592773438 160.267578125 c 0
 386.592773438 146.98828125 397.359375 136.182617188 410.640625 136.182617188 c 0
 410.655273438 136.208007812 642.587890625 136.182617188 642.587890625 136.182617188 c 2
 655.869140625 136.182617188 666.650390625 146.963867188 666.650390625 160.243164062 c 0
 666.650390625 165.984375 664.626953125 171.2734375 661.267578125 175.413085938 c 1
 661.26953125 175.41015625 645.8046875 194.380859375 621.0078125 224.857421875 c 1
 597.198242188 254.120117188 564.786132812 293.990234375 529.19921875 337.857421875 c 1
 493.33203125 434.477539062 588.1171875 408.998046875 636.633789062 383.857421875 c 1
EndSplineSet
EndChar

StartChar: Odieresis
Encoding: 214 214 13
Width: 1016
Flags: HW
LayerCount: 2
Fore
SplineSet
621.0078125 224.857421875 m 1
 645.8046875 194.380859375 661.26953125 175.41015625 661.267578125 175.413085938 c 1
 664.626953125 171.2734375 666.650390625 165.984375 666.650390625 160.243164062 c 0
 666.650390625 146.963867188 655.869140625 136.182617188 642.587890625 136.182617188 c 2
 642.587890625 136.182617188 410.655273438 136.208007812 410.640625 136.182617188 c 0
 397.359375 136.182617188 386.592773438 146.98828125 386.592773438 160.267578125 c 0
 386.592773438 165.104492188 388.030822034 169.606897727 390.482421875 173.3828125 c 2
 390.482421875 173.3828125 464.8046875 287.884765625 464.798828125 287.84375 c 1
 467.256835938 291.619140625 468.694335938 296.1640625 468.694335938 301 c 0
 468.694335938 306.741210938 466.678710938 312.013671875 463.319335938 316.153320312 c 2
 463.319335938 316.153320312 420.852539062 368.477539062 420.830078125 368.46875 c 0
 416.41796875 373.904296875 409.706054688 377.38671875 402.166992188 377.38671875 c 0
 393.724609375 377.38671875 386.290039062 373.028320312 381.995117188 366.44140625 c 2
 381.995117188 366.44140625 239.787109375 147.814453125 239.836914062 147.897460938 c 1
 231.637695312 135.319335938 226.822265625 120.220703125 226.822265625 104.099609375 c 0
 226.822265625 59.8330078125 262.759765625 23.8955078125 307.025390625 23.8955078125 c 2
 307.025390625 23.8955078125 760.482421875 23.9501953125 760.509765625 23.8955078125 c 0
 804.776367188 23.8955078125 840.686523438 59.8876953125 840.686523438 104.153320312 c 0
 840.686523438 123.290039062 834.172851562 140.619140625 822.768554688 154.662109375 c 2
 822.768554688 154.662109375 788.71875 196.58984375 740.5859375 255.857421875 c 1
 677.03515625 278.866210938 594.466796875 316.857421875 621.0078125 224.857421875 c 1
EndSplineSet
EndChar

StartChar: Otilde
Encoding: 213 213 14
Width: 1016
Flags: HW
LayerCount: 2
Fore
SplineSet
822.768554688 154.662109375 m 1
 834.172851562 140.619140625 840.686523438 123.290039062 840.686523438 104.153320312 c 0
 840.686523438 59.8876953125 804.776367188 23.8955078125 760.509765625 23.8955078125 c 0
 760.482421875 23.9501953125 307.025390625 23.8955078125 307.025390625 23.8955078125 c 2
 262.759765625 23.8955078125 226.822265625 59.8330078125 226.822265625 104.099609375 c 0
 226.822265625 120.220703125 231.637695312 135.319335938 239.836914062 147.897460938 c 1
 239.787109375 147.814453125 381.995117188 366.44140625 381.995117188 366.44140625 c 2
 386.290039062 373.028320312 393.724609375 377.38671875 402.166992188 377.38671875 c 0
 409.706054688 377.38671875 416.41796875 373.904296875 420.830078125 368.46875 c 0
 420.852539062 368.477539062 463.319335938 316.153320312 463.319335938 316.153320312 c 2
 466.678710938 312.013671875 468.694335938 306.741210938 468.694335938 301 c 0
 468.694335938 296.1640625 467.256835938 291.619140625 464.798828125 287.84375 c 1
 464.8046875 287.884765625 390.482421875 173.3828125 390.482421875 173.3828125 c 2
 388.030518911 169.606430863 386.592773438 165.104492188 386.592773438 160.267578125 c 0
 386.592773438 146.98828125 397.359375 136.182617188 410.640625 136.182617188 c 0
 410.655273438 136.208007812 642.587890625 136.182617188 642.587890625 136.182617188 c 2
 655.869140625 136.182617188 666.650390625 146.963867188 666.650390625 160.243164062 c 0
 666.650390625 165.984375 664.626953125 171.2734375 661.267578125 175.413085938 c 1
 713.109375 173.642578125 674.8671875 259.5390625 822.768554688 154.662109375 c 1
EndSplineSet
EndChar

StartChar: Oslash
Encoding: 216 216 15
Width: 1016
Flags: HW
LayerCount: 2
Fore
SplineSet
567.603515625 468.857421875 m 1
 681.41796875 328.713867188 822.768554688 154.662109375 822.768554688 154.662109375 c 2
 834.172851562 140.619140625 840.686523438 123.290039062 840.686523438 104.153320312 c 0
 840.686523438 59.8876953125 804.776367188 23.8955078125 760.509765625 23.8955078125 c 0
 760.482421875 23.9501953125 307.025390625 23.8955078125 307.025390625 23.8955078125 c 2
 262.759765625 23.8955078125 226.822265625 59.8330078125 226.822265625 104.099609375 c 0
 226.822265625 120.220703125 231.637695312 135.319335938 239.836914062 147.897460938 c 1
 239.787109375 147.814453125 381.995117188 366.44140625 381.995117188 366.44140625 c 2
 386.290039062 373.028320312 393.724609375 377.38671875 402.166992188 377.38671875 c 0
 409.706054688 377.38671875 416.41796875 373.904296875 420.830078125 368.46875 c 0
 420.852539062 368.477539062 463.319335938 316.153320312 463.319335938 316.153320312 c 2
 466.678710938 312.013671875 468.694335938 306.741210938 468.694335938 301 c 0
 468.694335938 296.1640625 467.256835938 291.619140625 464.798828125 287.84375 c 1
 464.8046875 287.884765625 390.482421875 173.3828125 390.482421875 173.3828125 c 2
 388.031397247 169.607783662 386.592773438 165.104492188 386.592773438 160.267578125 c 0
 386.592773438 146.98828125 397.359375 136.182617188 410.640625 136.182617188 c 0
 410.655273438 136.208007812 642.587890625 136.182617188 642.587890625 136.182617188 c 2
 655.869140625 136.182617188 666.650390625 146.963867188 666.650390625 160.243164062 c 0
 666.650390625 165.984375 664.626953125 171.2734375 661.267578125 175.413085938 c 1
 661.271484375 175.405273438 565.47265625 292.9296875 468.428710938 412.857421875 c 0
 412.79296875 481.61328125 528.3203125 496.614257812 567.603515625 468.857421875 c 1
EndSplineSet
EndChar

StartChar: Iacute
Encoding: 205 205 16
Width: 1016
Flags: HW
LayerCount: 2
Fore
SplineSet
347.883789062 314 m 1
 377.135742188 358.876953125 381.995117188 366.44140625 381.995117188 366.44140625 c 2
 386.396484375 373.193359375 393.724609375 377.38671875 402.166992188 377.38671875 c 0
 409.706054688 377.38671875 416.41796875 373.904296875 420.830078125 368.46875 c 0
 420.852539062 368.477539062 463.319335938 316.153320312 463.319335938 316.153320312 c 2
 466.678710938 312.013671875 468.694335938 306.741210938 468.694335938 301 c 0
 468.694335938 296.1640625 467.256835938 291.619140625 464.798828125 287.84375 c 1
 464.80078125 287.856445312 474.703125 302.967773438 462.323242188 284 c 1
 425.333984375 328 354.459960938 277.692382812 347.883789062 314 c 1
EndSplineSet
Comment: "1st loading frame"
EndChar

StartChar: Icircumflex
Encoding: 206 206 17
Width: 1016
Flags: HW
LayerCount: 2
Fore
SplineSet
265.130859375 187.15234375 m 1
 312.83984375 260.345703125 381.995117188 366.44140625 381.995117188 366.44140625 c 2
 386.396484375 373.193359375 393.724609375 377.38671875 402.166992188 377.38671875 c 0
 409.706054688 377.38671875 416.41796875 373.904296875 420.830078125 368.46875 c 0
 420.852539062 368.477539062 463.319335938 316.153320312 463.319335938 316.153320312 c 2
 466.678710938 312.013671875 468.694335938 306.741210938 468.694335938 301 c 0
 468.694335938 296.1640625 467.256835938 291.619140625 464.798828125 287.84375 c 1
 464.802734375 287.87109375 422.829101562 223.578125 395.178710938 181.15234375 c 1
 349.161132812 179.25390625 292.065429688 71.759765625 265.130859375 187.15234375 c 1
EndSplineSet
EndChar

StartChar: aring
Encoding: 229 229 18
Width: 1016
Flags: HW
LayerCount: 2
Fore
SplineSet
601.659179688 -102 m 5
 614.499883459 -78.0355730688 625.89453125 -56.7626953125 625.89453125 -56.7626953125 c 6
 627.291070817 -54.1559377518 627.809570312 -51.8759765625 627.809570312 -49.1845703125 c 4
 627.809570312 -38.5830078125 617.041015625 -29.9267578125 603.73828125 -29.9267578125 c 4
 484.258789062 -29.9267578125 l 6
 471.006835938 -29.9267578125 460.1875 -38.5400390625 460.1875 -49.1845703125 c 4
 460.1875 -51.8759765625 460.911132812 -54.443359375 462.154296875 -56.7626953125 c 5
 462.154296875 -56.7447780008 473.553710938 -78.025390625 486.39453125 -102 c 5
 524.939152991 -155.444329284 549.273323188 -62.1666495235 601.659179688 -102 c 5
445.38671875 681.571289062 m 2
 432.107421875 681.571289062 421.326171875 670.790039062 421.326171875 657.510742188 c 0
 421.326171875 651.76953125 423.34765625 646.48046875 426.708984375 642.342773438 c 1
 426.701171875 642.357421875 822.768554688 154.662109375 822.768554688 154.662109375 c 2
 833.969726562 140.869140625 840.686523438 123.290039062 840.686523438 104.153320312 c 0
 840.686523438 59.8876953125 804.776367188 23.8955078125 760.509765625 23.8955078125 c 0
 760.482421875 23.9501953125 307.025390625 23.8955078125 307.025390625 23.8955078125 c 2
 262.759765625 23.8955078125 226.822265625 59.8330078125 226.822265625 104.099609375 c 0
 226.822265625 120.220703125 231.637695312 135.319335938 239.836914062 147.897460938 c 1
 239.787109375 147.814453125 381.995117188 366.44140625 381.995117188 366.44140625 c 2
 386.290039062 373.028320312 393.724609375 377.38671875 402.166992188 377.38671875 c 0
 409.706054688 377.38671875 416.41796875 373.904296875 420.830078125 368.46875 c 0
 420.852539062 368.477539062 463.319335938 316.153320312 463.319335938 316.153320312 c 2
 466.678710938 312.013671875 468.694335938 306.741210938 468.694335938 301 c 0
 468.694335938 296.1640625 467.256835938 291.619140625 464.798828125 287.84375 c 1
 464.8046875 287.884765625 390.482421875 173.3828125 390.482421875 173.3828125 c 2
 388.030426535 169.606288586 386.592773438 165.104492188 386.592773438 160.267578125 c 0
 386.592773438 146.98828125 397.359375 136.182617188 410.640625 136.182617188 c 0
 410.655273438 136.208007812 642.587890625 136.182617188 642.587890625 136.182617188 c 2
 655.869140625 136.182617188 666.650390625 146.963867188 666.650390625 160.243164062 c 0
 666.650390625 165.984375 664.626953125 171.2734375 661.267578125 175.413085938 c 1
 661.275390625 175.396484375 265.206054688 663.091796875 265.206054688 663.091796875 c 2
 254.004882812 676.884765625 247.290039062 694.462890625 247.290039062 713.599609375 c 0
 247.290039062 757.866210938 283.200195312 793.857421875 327.466796875 793.857421875 c 0
 327.494140625 793.803710938 780.948242188 793.857421875 780.948242188 793.857421875 c 2
 825.21484375 793.857421875 861.154296875 757.919921875 861.154296875 713.654296875 c 0
 861.154296875 697.533203125 856.338867188 682.434570312 848.139648438 669.85546875 c 1
 848.189453125 669.939453125 706.169921875 451.875 706.169921875 451.875 c 2
 701.876953125 445.28515625 694.442382812 440.927734375 686 440.927734375 c 0
 678.458984375 440.927734375 671.749023438 444.41015625 667.336914062 449.844726562 c 0
 667.3125 449.836914062 624.84765625 502.163085938 624.84765625 502.163085938 c 2
 621.486328125 506.30078125 619.47265625 511.573242188 619.47265625 517.314453125 c 0
 619.47265625 522.150390625 620.908203125 526.697265625 623.368164062 530.470703125 c 1
 623.362304688 530.4296875 697.4921875 644.37109375 697.4921875 644.37109375 c 2
 699.945989803 648.141653252 701.381835938 652.649414062 701.381835938 657.485351562 c 0
 701.381835938 670.764648438 690.615234375 681.571289062 677.3359375 681.571289062 c 0
 677.321289062 681.547851562 445.38671875 681.571289062 445.38671875 681.571289062 c 2
EndSplineSet
EndChar

StartChar: adieresis
Encoding: 228 228 19
Width: 1016
Flags: HW
LayerCount: 2
Fore
SplineSet
445.38671875 681.571289062 m 2
 432.107421875 681.571289062 421.326171875 670.790039062 421.326171875 657.510742188 c 0
 421.326171875 651.76953125 423.34765625 646.48046875 426.708984375 642.342773438 c 1
 426.701171875 642.357421875 822.768554688 154.662109375 822.768554688 154.662109375 c 2
 833.969726562 140.869140625 840.686523438 123.290039062 840.686523438 104.153320312 c 0
 840.686523438 59.8876953125 804.776367188 23.8955078125 760.509765625 23.8955078125 c 0
 760.482421875 23.9501953125 307.025390625 23.8955078125 307.025390625 23.8955078125 c 2
 262.759765625 23.8955078125 226.822265625 59.8330078125 226.822265625 104.099609375 c 0
 226.822265625 120.220703125 231.637695312 135.319335938 239.836914062 147.897460938 c 1
 239.787109375 147.814453125 381.995117188 366.44140625 381.995117188 366.44140625 c 2
 386.290039062 373.028320312 393.724609375 377.38671875 402.166992188 377.38671875 c 0
 409.706054688 377.38671875 416.41796875 373.904296875 420.830078125 368.46875 c 0
 420.852539062 368.477539062 463.319335938 316.153320312 463.319335938 316.153320312 c 2
 466.678710938 312.013671875 468.694335938 306.741210938 468.694335938 301 c 0
 468.694335938 296.1640625 467.256835938 291.619140625 464.798828125 287.84375 c 1
 464.8046875 287.884765625 390.482421875 173.3828125 390.482421875 173.3828125 c 2
 388.030659751 169.606647782 386.592773438 165.104492188 386.592773438 160.267578125 c 0
 386.592773438 146.98828125 397.359375 136.182617188 410.640625 136.182617188 c 0
 410.655273438 136.208007812 642.587890625 136.182617188 642.587890625 136.182617188 c 2
 655.869140625 136.182617188 666.650390625 146.963867188 666.650390625 160.243164062 c 0
 666.650390625 165.984375 664.626953125 171.2734375 661.267578125 175.413085938 c 1
 661.275390625 175.396484375 265.206054688 663.091796875 265.206054688 663.091796875 c 2
 254.004882812 676.884765625 247.290039062 694.462890625 247.290039062 713.599609375 c 0
 247.290039062 757.866210938 283.200195312 793.857421875 327.466796875 793.857421875 c 0
 327.494140625 793.803710938 780.948242188 793.857421875 780.948242188 793.857421875 c 2
 825.21484375 793.857421875 861.154296875 757.919921875 861.154296875 713.654296875 c 0
 861.154296875 697.533203125 856.338867188 682.434570312 848.139648438 669.85546875 c 1
 848.189453125 669.939453125 706.169921875 451.875 706.169921875 451.875 c 2
 701.876953125 445.28515625 694.442382812 440.927734375 686 440.927734375 c 0
 678.458984375 440.927734375 671.749023438 444.41015625 667.336914062 449.844726562 c 0
 667.3125 449.836914062 624.84765625 502.163085938 624.84765625 502.163085938 c 2
 621.486328125 506.30078125 619.47265625 511.573242188 619.47265625 517.314453125 c 0
 619.47265625 522.150390625 620.908203125 526.697265625 623.368164062 530.470703125 c 1
 623.362304688 530.4296875 697.4921875 644.37109375 697.4921875 644.37109375 c 2
 699.948271119 648.145158765 701.381835938 652.649414062 701.381835938 657.485351562 c 0
 701.381835938 670.764648438 690.615234375 681.571289062 677.3359375 681.571289062 c 0
 677.321289062 681.547851562 445.38671875 681.571289062 445.38671875 681.571289062 c 2
EndSplineSet
EndChar

StartChar: Thorn
Encoding: 222 222 20
Width: 1016
Flags: HW
LayerCount: 2
Fore
SplineSet
327.466796875 793.857421875 m 1
 283.200195312 793.857421875 247.290039062 757.866210938 247.290039062 713.599609375 c 0
 247.290039062 694.462890625 254.004882812 676.884765625 265.206054688 663.091796875 c 2
 265.206054688 663.091796875 661.275390625 175.396484375 661.267578125 175.413085938 c 1
 664.626953125 171.2734375 666.650390625 165.984375 666.650390625 160.243164062 c 0
 666.650390625 146.963867188 655.869140625 136.182617188 642.587890625 136.182617188 c 2
 642.587890625 136.182617188 410.655273438 136.208007812 410.640625 136.182617188 c 0
 397.359375 136.182617188 386.592773438 146.98828125 386.592773438 160.267578125 c 0
 386.592773438 165.104492188 388.031121369 169.607358758 390.482421875 173.3828125 c 2
 390.482421875 173.3828125 464.8046875 287.884765625 464.798828125 287.84375 c 1
 467.256835938 291.619140625 468.694335938 296.1640625 468.694335938 301 c 0
 468.694335938 306.741210938 466.678710938 312.013671875 463.319335938 316.153320312 c 2
 463.319335938 316.153320312 420.852539062 368.477539062 420.830078125 368.46875 c 0
 416.41796875 373.904296875 409.706054688 377.38671875 402.166992188 377.38671875 c 0
 393.724609375 377.38671875 386.290039062 373.028320312 381.995117188 366.44140625 c 2
 381.995117188 366.44140625 239.787109375 147.814453125 239.836914062 147.897460938 c 1
 231.637695312 135.319335938 226.822265625 120.220703125 226.822265625 104.099609375 c 0
 226.822265625 59.8330078125 262.759765625 23.8955078125 307.025390625 23.8955078125 c 2
 307.025390625 23.8955078125 760.482421875 23.9501953125 760.509765625 23.8955078125 c 0
 804.776367188 23.8955078125 840.686523438 59.8876953125 840.686523438 104.153320312 c 0
 840.686523438 123.290039062 833.969726562 140.869140625 822.768554688 154.662109375 c 2
 822.768554688 154.662109375 426.701171875 642.357421875 426.708984375 642.342773438 c 1
 423.34765625 646.48046875 421.326171875 651.76953125 421.326171875 657.510742188 c 0
 421.326171875 670.790039062 432.107421875 681.571289062 445.38671875 681.571289062 c 1
 461.036132812 800.291015625 427.942382812 784.857421875 327.466796875 793.857421875 c 1
EndSplineSet
EndChar

StartChar: Ucircumflex
Encoding: 219 219 21
Width: 1016
Flags: HW
LayerCount: 2
Fore
SplineSet
439.284179688 626.857421875 m 1
 533.56640625 510.766601562 822.768554688 154.662109375 822.768554688 154.662109375 c 2
 834.172851562 140.619140625 840.686523438 123.290039062 840.686523438 104.153320312 c 0
 840.686523438 59.8876953125 804.776367188 23.8955078125 760.509765625 23.8955078125 c 0
 760.482421875 23.9501953125 307.025390625 23.8955078125 307.025390625 23.8955078125 c 2
 262.759765625 23.8955078125 226.822265625 59.8330078125 226.822265625 104.099609375 c 0
 226.822265625 120.220703125 231.637695312 135.319335938 239.836914062 147.897460938 c 1
 239.787109375 147.814453125 381.995117188 366.44140625 381.995117188 366.44140625 c 2
 386.290039062 373.028320312 393.724609375 377.38671875 402.166992188 377.38671875 c 0
 409.706054688 377.38671875 416.41796875 373.904296875 420.830078125 368.46875 c 0
 420.852539062 368.477539062 463.319335938 316.153320312 463.319335938 316.153320312 c 2
 466.678710938 312.013671875 468.694335938 306.741210938 468.694335938 301 c 0
 468.694335938 296.1640625 467.256835938 291.619140625 464.798828125 287.84375 c 1
 464.8046875 287.884765625 390.482421875 173.3828125 390.482421875 173.3828125 c 2
 388.030974548 169.607132627 386.592773438 165.104492188 386.592773438 160.267578125 c 0
 386.592773438 146.98828125 397.359375 136.182617188 410.640625 136.182617188 c 0
 410.655273438 136.208007812 642.587890625 136.182617188 642.587890625 136.182617188 c 2
 655.869140625 136.182617188 666.650390625 146.963867188 666.650390625 160.243164062 c 0
 666.650390625 165.984375 664.626953125 171.2734375 661.267578125 175.413085938 c 1
 661.2734375 175.400390625 399.524414062 497.67578125 290.551757812 631.857421875 c 1
 326.64453125 737.551757812 398.091796875 618.537109375 439.284179688 626.857421875 c 1
EndSplineSet
EndChar

StartChar: Udieresis
Encoding: 220 220 22
Width: 1016
Flags: HW
LayerCount: 2
Fore
SplineSet
421.326171875 657.510742188 m 1
 421.326171875 651.76953125 423.34765625 646.48046875 426.708984375 642.342773438 c 1
 426.701171875 642.357421875 822.768554688 154.662109375 822.768554688 154.662109375 c 2
 833.969726562 140.869140625 840.686523438 123.290039062 840.686523438 104.153320312 c 0
 840.686523438 59.8876953125 804.776367188 23.8955078125 760.509765625 23.8955078125 c 0
 760.482421875 23.9501953125 307.025390625 23.8955078125 307.025390625 23.8955078125 c 2
 262.759765625 23.8955078125 226.822265625 59.8330078125 226.822265625 104.099609375 c 0
 226.822265625 120.220703125 231.637695312 135.319335938 239.836914062 147.897460938 c 1
 239.787109375 147.814453125 381.995117188 366.44140625 381.995117188 366.44140625 c 2
 386.290039062 373.028320312 393.724609375 377.38671875 402.166992188 377.38671875 c 0
 409.706054688 377.38671875 416.41796875 373.904296875 420.830078125 368.46875 c 0
 420.852539062 368.477539062 463.319335938 316.153320312 463.319335938 316.153320312 c 2
 466.678710938 312.013671875 468.694335938 306.741210938 468.694335938 301 c 0
 468.694335938 296.1640625 467.256835938 291.619140625 464.798828125 287.84375 c 1
 464.8046875 287.884765625 390.482421875 173.3828125 390.482421875 173.3828125 c 2
 388.030710249 169.606725558 386.592773438 165.104492188 386.592773438 160.267578125 c 0
 386.592773438 146.98828125 397.359375 136.182617188 410.640625 136.182617188 c 0
 410.655273438 136.208007812 642.587890625 136.182617188 642.587890625 136.182617188 c 2
 655.869140625 136.182617188 666.650390625 146.963867188 666.650390625 160.243164062 c 0
 666.650390625 165.984375 664.626953125 171.2734375 661.267578125 175.413085938 c 1
 661.275390625 175.396484375 265.375 662.803710938 265.206054688 663.091796875 c 2
 260.154296875 669.311523438 256.015625 676.301757812 252.993164062 683.857421875 c 1
 339.5 761.907226562 362.26953125 669.41796875 421.326171875 657.510742188 c 1
EndSplineSet
EndChar

StartChar: Yacute
Encoding: 221 221 23
Width: 1016
Flags: HW
LayerCount: 2
Fore
SplineSet
427.73828125 673.857421875 m 1
 423.759765625 669.564453125 421.326171875 663.819335938 421.326171875 657.510742188 c 0
 421.326171875 651.76953125 423.34765625 646.48046875 426.708984375 642.342773438 c 1
 426.701171875 642.357421875 822.768554688 154.662109375 822.768554688 154.662109375 c 2
 833.969726562 140.869140625 840.686523438 123.290039062 840.686523438 104.153320312 c 0
 840.686523438 59.8876953125 804.776367188 23.8955078125 760.509765625 23.8955078125 c 0
 760.482421875 23.9501953125 307.025390625 23.8955078125 307.025390625 23.8955078125 c 2
 262.759765625 23.8955078125 226.822265625 59.8330078125 226.822265625 104.099609375 c 0
 226.822265625 120.220703125 231.637695312 135.319335938 239.836914062 147.897460938 c 1
 239.787109375 147.814453125 381.995117188 366.44140625 381.995117188 366.44140625 c 2
 386.290039062 373.028320312 393.724609375 377.38671875 402.166992188 377.38671875 c 0
 409.706054688 377.38671875 416.41796875 373.904296875 420.830078125 368.46875 c 0
 420.852539062 368.477539062 463.319335938 316.153320312 463.319335938 316.153320312 c 2
 466.678710938 312.013671875 468.694335938 306.741210938 468.694335938 301 c 0
 468.694335938 296.1640625 467.256835938 291.619140625 464.798828125 287.84375 c 1
 464.8046875 287.884765625 390.482421875 173.3828125 390.482421875 173.3828125 c 2
 388.030506632 169.606411951 386.592773438 165.104492188 386.592773438 160.267578125 c 0
 386.592773438 146.98828125 397.359375 136.182617188 410.640625 136.182617188 c 0
 410.655273438 136.208007812 642.587890625 136.182617188 642.587890625 136.182617188 c 2
 655.869140625 136.182617188 666.650390625 146.963867188 666.650390625 160.243164062 c 0
 666.650390625 165.984375 664.626953125 171.2734375 661.267578125 175.413085938 c 1
 661.275390625 175.396484375 265.206054688 663.091796875 265.206054688 663.091796875 c 2
 254.004882812 676.884765625 247.290039062 694.462890625 247.290039062 713.599609375 c 0
 247.290039062 728.262695312 251.23046875 742.017578125 258.109375 753.857421875 c 1
 398.452148438 812.671875 305.466796875 687.857421875 427.73828125 673.857421875 c 1
EndSplineSet
EndChar

StartChar: aacute
Encoding: 225 225 24
Width: 1016
Flags: HW
LayerCount: 2
Fore
SplineSet
818.466796875 784.546875 m 1
 807.268554688 790.490234375 794.499023438 793.857421875 780.948242188 793.857421875 c 2
 780.495117188 793.969726562 327.494140625 793.803710938 327.466796875 793.857421875 c 0
 283.200195312 793.857421875 247.290039062 757.866210938 247.290039062 713.599609375 c 0
 247.290039062 694.462890625 254.004882812 676.884765625 265.206054688 663.091796875 c 2
 265.206054688 663.091796875 661.275390625 175.396484375 661.267578125 175.413085938 c 1
 664.626953125 171.2734375 666.650390625 165.984375 666.650390625 160.243164062 c 0
 666.650390625 146.963867188 655.869140625 136.182617188 642.587890625 136.182617188 c 2
 642.587890625 136.182617188 410.655273438 136.208007812 410.640625 136.182617188 c 0
 397.359375 136.182617188 386.592773438 146.98828125 386.592773438 160.267578125 c 0
 386.592773438 165.104492188 388.031124817 169.607364069 390.482421875 173.3828125 c 2
 390.482421875 173.3828125 464.8046875 287.884765625 464.798828125 287.84375 c 1
 467.256835938 291.619140625 468.694335938 296.1640625 468.694335938 301 c 0
 468.694335938 306.741210938 466.678710938 312.013671875 463.319335938 316.153320312 c 2
 463.319335938 316.153320312 420.852539062 368.477539062 420.830078125 368.46875 c 0
 416.41796875 373.904296875 409.706054688 377.38671875 402.166992188 377.38671875 c 0
 393.724609375 377.38671875 386.290039062 373.028320312 381.995117188 366.44140625 c 2
 381.995117188 366.44140625 239.787109375 147.814453125 239.836914062 147.897460938 c 1
 231.637695312 135.319335938 226.822265625 120.220703125 226.822265625 104.099609375 c 0
 226.822265625 59.8330078125 262.759765625 23.8955078125 307.025390625 23.8955078125 c 2
 307.025390625 23.8955078125 760.482421875 23.9501953125 760.509765625 23.8955078125 c 0
 804.776367188 23.8955078125 840.686523438 59.8876953125 840.686523438 104.153320312 c 0
 840.686523438 123.290039062 833.969726562 140.869140625 822.768554688 154.662109375 c 2
 822.768554688 154.662109375 426.701171875 642.357421875 426.708984375 642.342773438 c 1
 423.34765625 646.48046875 421.326171875 651.76953125 421.326171875 657.510742188 c 0
 421.326171875 670.790039062 432.107421875 681.571289062 445.38671875 681.571289062 c 2
 445.38671875 681.571289062 677.30859375 681.569335938 677.3359375 681.571289062 c 0
 681.466796875 681.857421875 685.905273438 680.372070312 689.466796875 678.28125 c 1
 733.071289062 715.984375 817.588867188 662.407226562 818.466796875 784.546875 c 1
EndSplineSet
EndChar

StartChar: agrave
Encoding: 224 224 25
Width: 1016
Flags: HW
LayerCount: 2
Fore
SplineSet
631.466796875 793.891601562 m 1
 499.349609375 793.875 327.50390625 793.857421875 327.466796875 793.857421875 c 0
 283.200195312 793.857421875 247.290039062 757.866210938 247.290039062 713.599609375 c 0
 247.290039062 694.462890625 254.004882812 676.884765625 265.206054688 663.091796875 c 2
 265.206054688 663.091796875 661.275390625 175.396484375 661.267578125 175.413085938 c 1
 664.626953125 171.2734375 666.650390625 165.984375 666.650390625 160.243164062 c 0
 666.650390625 146.963867188 655.869140625 136.182617188 642.587890625 136.182617188 c 2
 642.587890625 136.182617188 410.655273438 136.208007812 410.640625 136.182617188 c 0
 397.359375 136.182617188 386.592773438 146.98828125 386.592773438 160.267578125 c 0
 386.592773438 165.104492188 388.030675471 169.606671994 390.482421875 173.3828125 c 2
 390.482421875 173.3828125 464.8046875 287.884765625 464.798828125 287.84375 c 1
 467.256835938 291.619140625 468.694335938 296.1640625 468.694335938 301 c 0
 468.694335938 306.741210938 466.678710938 312.013671875 463.319335938 316.153320312 c 2
 463.319335938 316.153320312 420.852539062 368.477539062 420.830078125 368.46875 c 0
 416.41796875 373.904296875 409.706054688 377.38671875 402.166992188 377.38671875 c 0
 393.724609375 377.38671875 386.290039062 373.028320312 381.995117188 366.44140625 c 2
 381.995117188 366.44140625 239.787109375 147.814453125 239.836914062 147.897460938 c 1
 231.637695312 135.319335938 226.822265625 120.220703125 226.822265625 104.099609375 c 0
 226.822265625 59.8330078125 262.759765625 23.8955078125 307.025390625 23.8955078125 c 2
 307.025390625 23.8955078125 760.482421875 23.9501953125 760.509765625 23.8955078125 c 0
 804.776367188 23.8955078125 840.686523438 59.8876953125 840.686523438 104.153320312 c 0
 840.686523438 123.290039062 833.969726562 140.869140625 822.768554688 154.662109375 c 2
 822.768554688 154.662109375 426.701171875 642.357421875 426.708984375 642.342773438 c 1
 423.34765625 646.48046875 421.326171875 651.76953125 421.326171875 657.510742188 c 0
 421.326171875 670.790039062 432.466796875 681.571289062 445.38671875 681.571289062 c 2
 445.38671875 681.571289062 557.096679688 681.5703125 625.466796875 681.5703125 c 1
 643.217773438 718.094726562 697.466796875 751.857421875 631.466796875 793.891601562 c 1
EndSplineSet
EndChar

StartChar: germandbls
Encoding: 223 223 26
Width: 1016
Flags: HW
LayerCount: 2
Fore
SplineSet
503.466796875 681.571289062 m 1
 470.13671875 681.571289062 445.38671875 681.571289062 445.38671875 681.571289062 c 2
 432.466796875 681.571289062 421.326171875 670.790039062 421.326171875 657.510742188 c 0
 421.326171875 651.76953125 423.34765625 646.48046875 426.708984375 642.342773438 c 1
 426.701171875 642.357421875 822.768554688 154.662109375 822.768554688 154.662109375 c 2
 833.969726562 140.869140625 840.686523438 123.290039062 840.686523438 104.153320312 c 0
 840.686523438 59.8876953125 804.776367188 23.8955078125 760.509765625 23.8955078125 c 0
 760.482421875 23.9501953125 307.025390625 23.8955078125 307.025390625 23.8955078125 c 2
 262.759765625 23.8955078125 226.822265625 59.8330078125 226.822265625 104.099609375 c 0
 226.822265625 120.220703125 231.637695312 135.319335938 239.836914062 147.897460938 c 1
 239.787109375 147.814453125 381.995117188 366.44140625 381.995117188 366.44140625 c 2
 386.290039062 373.028320312 393.724609375 377.38671875 402.166992188 377.38671875 c 0
 409.706054688 377.38671875 416.41796875 373.904296875 420.830078125 368.46875 c 0
 420.852539062 368.477539062 463.319335938 316.153320312 463.319335938 316.153320312 c 2
 466.678710938 312.013671875 468.694335938 306.741210938 468.694335938 301 c 0
 468.694335938 296.1640625 467.256835938 291.619140625 464.798828125 287.84375 c 1
 464.8046875 287.884765625 390.482421875 173.3828125 390.482421875 173.3828125 c 2
 388.030230687 169.605986945 386.592773438 165.104492188 386.592773438 160.267578125 c 0
 386.592773438 146.98828125 397.359375 136.182617188 410.640625 136.182617188 c 0
 410.655273438 136.208007812 642.587890625 136.182617188 642.587890625 136.182617188 c 2
 655.869140625 136.182617188 666.650390625 146.963867188 666.650390625 160.243164062 c 0
 666.650390625 165.984375 664.626953125 171.2734375 661.267578125 175.413085938 c 1
 661.275390625 175.396484375 265.206054688 663.091796875 265.206054688 663.091796875 c 2
 254.004882812 676.884765625 247.290039062 694.462890625 247.290039062 713.599609375 c 0
 247.290039062 757.866210938 283.200195312 793.857421875 327.466796875 793.857421875 c 0
 327.490234375 793.857421875 393.672851562 793.864257812 475.466796875 793.873046875 c 1
 580.48828125 755.873046875 515.466796875 717.857421875 503.466796875 681.571289062 c 1
EndSplineSet
EndChar

StartChar: atilde
Encoding: 227 227 27
Width: 1016
Flags: HW
LayerCount: 2
Fore
SplineSet
754.2734375 525.857421875 m 1
 798.478515625 593.673828125 848.166992188 669.90234375 848.139648438 669.85546875 c 1
 856.338867188 682.434570312 861.154296875 697.533203125 861.154296875 713.654296875 c 0
 861.154296875 757.919921875 825.21484375 793.857421875 780.948242188 793.857421875 c 2
 780.948242188 793.857421875 327.494140625 793.803710938 327.466796875 793.857421875 c 0
 283.200195312 793.857421875 247.290039062 757.866210938 247.290039062 713.599609375 c 0
 247.290039062 694.462890625 254.004882812 676.884765625 265.206054688 663.091796875 c 2
 265.206054688 663.091796875 661.275390625 175.396484375 661.267578125 175.413085938 c 1
 664.626953125 171.2734375 666.650390625 165.984375 666.650390625 160.243164062 c 0
 666.650390625 146.963867188 655.869140625 136.182617188 642.587890625 136.182617188 c 2
 642.587890625 136.182617188 410.655273438 136.208007812 410.640625 136.182617188 c 0
 397.359375 136.182617188 386.592773438 146.98828125 386.592773438 160.267578125 c 0
 386.592773438 165.104492188 388.030912175 169.607036561 390.482421875 173.3828125 c 2
 390.482421875 173.3828125 464.8046875 287.884765625 464.798828125 287.84375 c 1
 467.256835938 291.619140625 468.694335938 296.1640625 468.694335938 301 c 0
 468.694335938 306.741210938 466.678710938 312.013671875 463.319335938 316.153320312 c 2
 463.319335938 316.153320312 420.852539062 368.477539062 420.830078125 368.46875 c 0
 416.41796875 373.904296875 409.706054688 377.38671875 402.166992188 377.38671875 c 0
 393.724609375 377.38671875 386.290039062 373.028320312 381.995117188 366.44140625 c 2
 381.995117188 366.44140625 239.787109375 147.814453125 239.836914062 147.897460938 c 1
 231.637695312 135.319335938 226.822265625 120.220703125 226.822265625 104.099609375 c 0
 226.822265625 59.8330078125 262.759765625 23.8955078125 307.025390625 23.8955078125 c 2
 307.025390625 23.8955078125 760.482421875 23.9501953125 760.509765625 23.8955078125 c 0
 804.776367188 23.8955078125 840.686523438 59.8876953125 840.686523438 104.153320312 c 0
 840.686523438 123.290039062 833.969726562 140.869140625 822.768554688 154.662109375 c 2
 822.768554688 154.662109375 426.701171875 642.357421875 426.708984375 642.342773438 c 1
 423.34765625 646.48046875 421.326171875 651.76953125 421.326171875 657.510742188 c 0
 421.326171875 670.790039062 432.107421875 681.571289062 445.38671875 681.571289062 c 2
 445.38671875 681.571289062 677.321289062 681.547851562 677.3359375 681.571289062 c 0
 690.615234375 681.571289062 701.381835938 670.764648438 701.381835938 657.485351562 c 0
 701.381835938 652.649414062 699.67578125 647.721679688 697.4921875 644.37109375 c 2
 697.4921875 644.37109375 686.66796875 627.76171875 672.392578125 605.857421875 c 1
 717.466796875 607.857421875 684.19140625 492.510742188 754.2734375 525.857421875 c 1
EndSplineSet
EndChar

StartChar: acircumflex
Encoding: 226 226 28
Width: 1016
Flags: HW
LayerCount: 2
Fore
SplineSet
859.587890625 697.857421875 m 1
 860.614257812 702.970703125 861.154296875 708.254882812 861.154296875 713.654296875 c 0
 861.154296875 757.919921875 825.21484375 793.857421875 780.948242188 793.857421875 c 2
 780.948242188 793.857421875 327.494140625 793.803710938 327.466796875 793.857421875 c 0
 283.200195312 793.857421875 247.290039062 757.866210938 247.290039062 713.599609375 c 0
 247.290039062 694.462890625 254.004882812 676.884765625 265.206054688 663.091796875 c 2
 265.206054688 663.091796875 661.275390625 175.396484375 661.267578125 175.413085938 c 1
 664.626953125 171.2734375 666.650390625 165.984375 666.650390625 160.243164062 c 0
 666.650390625 146.963867188 655.869140625 136.182617188 642.587890625 136.182617188 c 2
 642.587890625 136.182617188 410.655273438 136.208007812 410.640625 136.182617188 c 0
 397.359375 136.182617188 386.592773438 146.98828125 386.592773438 160.267578125 c 0
 386.592773438 165.104492188 388.032109187 169.60888018 390.482421875 173.3828125 c 2
 390.482421875 173.3828125 464.8046875 287.884765625 464.798828125 287.84375 c 1
 467.256835938 291.619140625 468.694335938 296.1640625 468.694335938 301 c 0
 468.694335938 306.741210938 466.678710938 312.013671875 463.319335938 316.153320312 c 2
 463.319335938 316.153320312 420.852539062 368.477539062 420.830078125 368.46875 c 0
 416.41796875 373.904296875 409.706054688 377.38671875 402.166992188 377.38671875 c 0
 393.724609375 377.38671875 386.290039062 373.028320312 381.995117188 366.44140625 c 2
 381.995117188 366.44140625 239.787109375 147.814453125 239.836914062 147.897460938 c 1
 231.637695312 135.319335938 226.822265625 120.220703125 226.822265625 104.099609375 c 0
 226.822265625 59.8330078125 262.759765625 23.8955078125 307.025390625 23.8955078125 c 2
 307.025390625 23.8955078125 760.482421875 23.9501953125 760.509765625 23.8955078125 c 0
 804.776367188 23.8955078125 840.686523438 59.8876953125 840.686523438 104.153320312 c 0
 840.686523438 123.290039062 833.969726562 140.869140625 822.768554688 154.662109375 c 2
 822.768554688 154.662109375 426.701171875 642.357421875 426.708984375 642.342773438 c 1
 423.34765625 646.48046875 421.326171875 651.76953125 421.326171875 657.510742188 c 0
 421.326171875 670.790039062 432.107421875 681.571289062 445.38671875 681.571289062 c 2
 445.38671875 681.571289062 677.30859375 681.577148438 677.3359375 681.571289062 c 0
 685.466796875 679.857421875 701.381835938 670.764648438 701.381835938 657.485351562 c 1
 754.177734375 678.270507812 778.6640625 514.513671875 859.587890625 697.857421875 c 1
EndSplineSet
EndChar

StartChar: L
Encoding: 76 76 29
Width: 1066
Flags: HW
LayerCount: 2
Fore
SplineSet
555.110351562 658.610351562 m 1
 429.350585938 871.875 82.234375 828.725585938 82.234375 566.94921875 c 0
 82.234375 291.512695312 503.475585938 -76.296875 530.12109375 -99.29296875 c 0
 544.485351562 -111.689453125 565.754882812 -111.689453125 580.119140625 -99.29296875 c 0
 606.911132812 -76.17578125 1028 291.595703125 1028 567 c 0
 1028 588.390625 1021.97070312 793.846679688 790.209960938 793.846679688 c 0
 689.916015625 793.846679688 602.697265625 739.342773438 555.110351562 658.610351562 c 1
EndSplineSet
EndChar

StartChar: ccedilla
Encoding: 231 231 30
Width: 1016
Flags: HW
LayerCount: 2
Fore
SplineSet
521.893554688 -168.291015625 m 6
 521.893554688 -168.291015625 462.154296875 -56.7216796875 462.154296875 -56.7626953125 c 5
 460.911132812 -54.443359375 460.1875 -51.8759765625 460.1875 -49.1845703125 c 4
 460.1875 -38.5400390625 471.006835938 -29.9267578125 484.258789062 -29.9267578125 c 6
 603.73828125 -29.9267578125 l 4
 617.041015625 -29.9267578125 627.809570312 -38.5830078125 627.809570312 -49.1845703125 c 4
 627.809570312 -51.8759765625 627.135742188 -54.443359375 625.89453125 -56.7626953125 c 6
 625.89453125 -56.7626953125 566.155273438 -168.291015625 566.102539062 -168.291015625 c 4
 562.427734375 -175.165039062 553.9375 -179.96875 543.999023438 -179.96875 c 4
 534.110351562 -179.96875 525.569335938 -175.165039062 521.893554688 -168.291015625 c 6
462.486328125 283.857421875 m 1
 434.94140625 241.6015625 390.482421875 173.3828125 390.482421875 173.3828125 c 2
 388.268554688 169.986328125 386.592773438 165.104492188 386.592773438 160.267578125 c 0
 386.592773438 146.98828125 397.359375 136.182617188 410.640625 136.182617188 c 0
 410.655273438 136.208007812 642.587890625 136.182617188 642.587890625 136.182617188 c 2
 655.869140625 136.182617188 666.650390625 146.963867188 666.650390625 160.243164062 c 0
 666.650390625 165.984375 664.626953125 171.2734375 661.267578125 175.413085938 c 1
 661.275390625 175.396484375 265.206054688 663.091796875 265.206054688 663.091796875 c 2
 254.004882812 676.884765625 247.290039062 694.462890625 247.290039062 713.599609375 c 0
 247.290039062 757.866210938 283.200195312 793.857421875 327.466796875 793.857421875 c 0
 327.494140625 793.803710938 780.948242188 793.857421875 780.948242188 793.857421875 c 2
 825.21484375 793.857421875 861.154296875 757.919921875 861.154296875 713.654296875 c 0
 861.154296875 697.533203125 856.338867188 682.434570312 848.139648438 669.85546875 c 1
 848.189453125 669.939453125 706.169921875 451.875 706.169921875 451.875 c 2
 701.876953125 445.28515625 694.442382812 440.927734375 686 440.927734375 c 0
 678.458984375 440.927734375 671.749023438 444.41015625 667.336914062 449.844726562 c 0
 667.3125 449.836914062 624.84765625 502.163085938 624.84765625 502.163085938 c 2
 621.486328125 506.30078125 619.47265625 511.573242188 619.47265625 517.314453125 c 0
 619.47265625 522.150390625 620.908203125 526.697265625 623.368164062 530.470703125 c 1
 623.362304688 530.4296875 697.4921875 644.37109375 697.4921875 644.37109375 c 2
 699.947865666 648.144535738 701.381835938 652.649414062 701.381835938 657.485351562 c 0
 701.381835938 670.764648438 690.615234375 681.571289062 677.3359375 681.571289062 c 0
 677.321289062 681.547851562 445.38671875 681.571289062 445.38671875 681.571289062 c 2
 432.107421875 681.571289062 421.326171875 670.790039062 421.326171875 657.510742188 c 0
 421.326171875 651.76953125 423.34765625 646.48046875 426.708984375 642.342773438 c 1
 426.701171875 642.357421875 822.768554688 154.662109375 822.768554688 154.662109375 c 2
 833.969726562 140.869140625 840.686523438 123.290039062 840.686523438 104.153320312 c 0
 840.686523438 59.8876953125 804.776367188 23.8955078125 760.509765625 23.8955078125 c 0
 760.482421875 23.9501953125 307.025390625 23.8955078125 307.025390625 23.8955078125 c 2
 262.759765625 23.8955078125 226.822265625 59.8330078125 226.822265625 104.099609375 c 0
 226.822265625 120.220703125 231.637695312 135.319335938 239.836914062 147.897460938 c 1
 239.806640625 147.846679688 301.030273438 241.772460938 348.016601562 313.857421875 c 1
 355.466796875 277.857421875 423.466796875 327.857421875 462.486328125 283.857421875 c 1
EndSplineSet
EndChar

StartChar: egrave
Encoding: 232 232 31
Width: 1016
Flags: HW
LayerCount: 2
Fore
SplineSet
521.893554688 -168.291015625 m 6
 521.893554688 -168.291015625 462.154296875 -56.7216796875 462.154296875 -56.7626953125 c 5
 460.911132812 -54.443359375 460.1875 -51.8759765625 460.1875 -49.1845703125 c 4
 460.1875 -38.5400390625 471.006835938 -29.9267578125 484.258789062 -29.9267578125 c 6
 603.73828125 -29.9267578125 l 4
 617.041015625 -29.9267578125 627.809570312 -38.5830078125 627.809570312 -49.1845703125 c 4
 627.809570312 -51.8759765625 627.135742188 -54.443359375 625.89453125 -56.7626953125 c 6
 625.89453125 -56.7626953125 566.155273438 -168.291015625 566.102539062 -168.291015625 c 4
 562.427734375 -175.165039062 553.9375 -179.96875 543.999023438 -179.96875 c 4
 534.110351562 -179.96875 525.569335938 -175.165039062 521.893554688 -168.291015625 c 6
414.25390625 209.857421875 m 1
 400.639648438 188.969726562 390.482421875 173.3828125 390.482421875 173.3828125 c 2
 388.268554688 169.986328125 386.592773438 165.104492188 386.592773438 160.267578125 c 0
 386.592773438 146.98828125 397.359375 136.182617188 410.640625 136.182617188 c 0
 410.655273438 136.208007812 642.587890625 136.182617188 642.587890625 136.182617188 c 2
 655.869140625 136.182617188 666.650390625 146.963867188 666.650390625 160.243164062 c 0
 666.650390625 165.984375 664.626953125 171.2734375 661.267578125 175.413085938 c 1
 661.275390625 175.396484375 265.206054688 663.091796875 265.206054688 663.091796875 c 2
 254.004882812 676.884765625 247.290039062 694.462890625 247.290039062 713.599609375 c 0
 247.290039062 757.866210938 283.200195312 793.857421875 327.466796875 793.857421875 c 0
 327.494140625 793.803710938 780.948242188 793.857421875 780.948242188 793.857421875 c 2
 825.21484375 793.857421875 861.154296875 757.919921875 861.154296875 713.654296875 c 0
 861.154296875 697.533203125 856.338867188 682.434570312 848.139648438 669.85546875 c 1
 848.189453125 669.939453125 706.169921875 451.875 706.169921875 451.875 c 2
 701.876953125 445.28515625 694.442382812 440.927734375 686 440.927734375 c 0
 678.458984375 440.927734375 671.749023438 444.41015625 667.336914062 449.844726562 c 0
 667.3125 449.836914062 624.84765625 502.163085938 624.84765625 502.163085938 c 2
 621.486328125 506.30078125 619.47265625 511.573242188 619.47265625 517.314453125 c 0
 619.47265625 522.150390625 620.908203125 526.697265625 623.368164062 530.470703125 c 1
 623.362304688 530.4296875 697.4921875 644.37109375 697.4921875 644.37109375 c 2
 699.948634113 648.145716548 701.381835938 652.649414062 701.381835938 657.485351562 c 0
 701.381835938 670.764648438 690.615234375 681.571289062 677.3359375 681.571289062 c 0
 677.321289062 681.547851562 445.38671875 681.571289062 445.38671875 681.571289062 c 2
 432.107421875 681.571289062 421.326171875 670.790039062 421.326171875 657.510742188 c 0
 421.326171875 651.76953125 423.34765625 646.48046875 426.708984375 642.342773438 c 1
 426.701171875 642.357421875 822.768554688 154.662109375 822.768554688 154.662109375 c 2
 833.969726562 140.869140625 840.686523438 123.290039062 840.686523438 104.153320312 c 0
 840.686523438 59.8876953125 804.776367188 23.8955078125 760.509765625 23.8955078125 c 0
 760.482421875 23.9501953125 307.025390625 23.8955078125 307.025390625 23.8955078125 c 2
 262.759765625 23.8955078125 226.822265625 59.8330078125 226.822265625 104.099609375 c 0
 226.822265625 120.220703125 231.637695312 135.319335938 239.836914062 147.897460938 c 1
 239.819335938 147.869140625 259.002929688 177.296875 284.137695312 215.857421875 c 1
 311.466796875 99.857421875 369.466796875 208.857421875 414.25390625 209.857421875 c 1
EndSplineSet
EndChar

StartChar: eacute
Encoding: 233 233 32
Width: 1016
Flags: HW
LayerCount: 2
Fore
SplineSet
521.893554688 -168.291015625 m 6
 521.893554688 -168.291015625 462.154296875 -56.7216796875 462.154296875 -56.7626953125 c 5
 460.911132812 -54.443359375 460.1875 -51.8759765625 460.1875 -49.1845703125 c 4
 460.1875 -38.5400390625 471.006835938 -29.9267578125 484.258789062 -29.9267578125 c 6
 603.73828125 -29.9267578125 l 4
 617.041015625 -29.9267578125 627.809570312 -38.5830078125 627.809570312 -49.1845703125 c 4
 627.809570312 -51.8759765625 627.135742188 -54.443359375 625.89453125 -56.7626953125 c 6
 625.89453125 -56.7626953125 566.155273438 -168.291015625 566.102539062 -168.291015625 c 4
 562.427734375 -175.165039062 553.9375 -179.96875 543.999023438 -179.96875 c 4
 534.110351562 -179.96875 525.569335938 -175.165039062 521.893554688 -168.291015625 c 6
386.592773438 160.267578125 m 1
 386.592773438 146.98828125 397.359375 136.182617188 410.640625 136.182617188 c 2
 410.716796875 136.106445312 642.587890625 136.182617188 642.587890625 136.182617188 c 2
 655.869140625 136.182617188 666.650390625 146.963867188 666.650390625 160.243164062 c 0
 666.650390625 165.984375 664.626953125 171.2734375 661.267578125 175.413085938 c 1
 661.275390625 175.396484375 265.206054688 663.091796875 265.206054688 663.091796875 c 2
 254.004882812 676.884765625 247.290039062 694.462890625 247.290039062 713.599609375 c 0
 247.290039062 757.866210938 283.200195312 793.857421875 327.466796875 793.857421875 c 0
 327.494140625 793.803710938 780.948242188 793.857421875 780.948242188 793.857421875 c 2
 825.21484375 793.857421875 861.154296875 757.919921875 861.154296875 713.654296875 c 0
 861.154296875 697.533203125 856.338867188 682.434570312 848.139648438 669.85546875 c 1
 848.189453125 669.939453125 706.169921875 451.875 706.169921875 451.875 c 2
 701.876953125 445.28515625 694.442382812 440.927734375 686 440.927734375 c 0
 678.458984375 440.927734375 671.749023438 444.41015625 667.336914062 449.844726562 c 0
 667.3125 449.836914062 624.84765625 502.163085938 624.84765625 502.163085938 c 2
 621.486328125 506.30078125 619.47265625 511.573242188 619.47265625 517.314453125 c 0
 619.47265625 522.150390625 620.908203125 526.697265625 623.368164062 530.470703125 c 1
 623.362304688 530.4296875 697.4921875 644.37109375 697.4921875 644.37109375 c 2
 699.945512221 648.14091939 701.381835938 652.649414062 701.381835938 657.485351562 c 0
 701.381835938 670.764648438 690.615234375 681.571289062 677.3359375 681.571289062 c 0
 677.321289062 681.547851562 445.38671875 681.571289062 445.38671875 681.571289062 c 2
 432.107421875 681.571289062 421.326171875 670.790039062 421.326171875 657.510742188 c 0
 421.326171875 651.76953125 423.34765625 646.48046875 426.708984375 642.342773438 c 1
 426.701171875 642.357421875 822.768554688 154.662109375 822.768554688 154.662109375 c 2
 833.969726562 140.869140625 840.686523438 123.290039062 840.686523438 104.153320312 c 0
 840.686523438 59.8876953125 804.776367188 23.8955078125 760.509765625 23.8955078125 c 0
 760.482421875 23.9501953125 307.025390625 23.8955078125 307.025390625 23.8955078125 c 2
 262.759765625 23.8955078125 226.822265625 59.8330078125 226.822265625 104.099609375 c 0
 226.822265625 120.220703125 231.637695312 135.319335938 239.836914062 147.897460938 c 1
 299.80859375 16.2099609375 311.2265625 172.470703125 386.592773438 160.267578125 c 1
EndSplineSet
EndChar

StartChar: ecircumflex
Encoding: 234 234 33
Width: 1016
Flags: HW
LayerCount: 2
Fore
SplineSet
521.893554688 -168.291015625 m 6
 521.893554688 -168.291015625 462.154296875 -56.7216796875 462.154296875 -56.7626953125 c 5
 460.911132812 -54.443359375 460.1875 -51.8759765625 460.1875 -49.1845703125 c 4
 460.1875 -38.5400390625 471.006835938 -29.9267578125 484.258789062 -29.9267578125 c 6
 603.73828125 -29.9267578125 l 4
 617.041015625 -29.9267578125 627.809570312 -38.5830078125 627.809570312 -49.1845703125 c 4
 627.809570312 -51.8759765625 627.135742188 -54.443359375 625.89453125 -56.7626953125 c 6
 625.89453125 -56.7626953125 566.155273438 -168.291015625 566.102539062 -168.291015625 c 4
 562.427734375 -175.165039062 553.9375 -179.96875 543.999023438 -179.96875 c 4
 534.110351562 -179.96875 525.569335938 -175.165039062 521.893554688 -168.291015625 c 6
410.640625 136.182617188 m 1
 410.716796875 136.106445312 642.587890625 136.182617188 642.587890625 136.182617188 c 2
 655.466796875 136.182617188 666.650390625 146.963867188 666.650390625 160.243164062 c 0
 666.650390625 165.984375 664.626953125 171.2734375 661.267578125 175.413085938 c 1
 661.275390625 175.396484375 265.206054688 663.091796875 265.206054688 663.091796875 c 2
 254.004882812 676.884765625 247.290039062 694.462890625 247.290039062 713.599609375 c 0
 247.290039062 757.866210938 283.200195312 793.857421875 327.466796875 793.857421875 c 0
 327.494140625 793.803710938 780.948242188 793.857421875 780.948242188 793.857421875 c 2
 825.21484375 793.857421875 861.154296875 757.919921875 861.154296875 713.654296875 c 0
 861.154296875 697.533203125 856.338867188 682.434570312 848.139648438 669.85546875 c 1
 848.189453125 669.939453125 706.169921875 451.875 706.169921875 451.875 c 2
 701.876953125 445.28515625 694.442382812 440.927734375 686 440.927734375 c 0
 678.458984375 440.927734375 671.749023438 444.41015625 667.336914062 449.844726562 c 0
 667.3125 449.836914062 624.84765625 502.163085938 624.84765625 502.163085938 c 2
 621.486328125 506.30078125 619.47265625 511.573242188 619.47265625 517.314453125 c 0
 619.47265625 522.150390625 620.908203125 526.697265625 623.368164062 530.470703125 c 1
 623.362304688 530.4296875 697.4921875 644.37109375 697.4921875 644.37109375 c 2
 699.948009686 648.144757042 701.381835938 652.649414062 701.381835938 657.485351562 c 0
 701.381835938 670.764648438 690.615234375 681.571289062 677.3359375 681.571289062 c 0
 677.321289062 681.547851562 445.38671875 681.571289062 445.38671875 681.571289062 c 2
 432.107421875 681.571289062 421.326171875 670.790039062 421.326171875 657.510742188 c 0
 421.326171875 651.76953125 423.34765625 646.48046875 426.708984375 642.342773438 c 1
 426.701171875 642.357421875 822.768554688 154.662109375 822.768554688 154.662109375 c 2
 833.969726562 140.869140625 840.686523438 123.290039062 840.686523438 104.153320312 c 0
 840.686523438 59.8876953125 804.776367188 23.8955078125 760.509765625 23.8955078125 c 0
 760.482421875 23.9501953125 307.264648438 23.6552734375 307.025390625 23.8955078125 c 2
 262.759765625 23.8955078125 226.822265625 59.8330078125 226.822265625 104.099609375 c 1
 398.466796875 -31.8369140625 350.466796875 119.857421875 410.640625 136.182617188 c 1
EndSplineSet
EndChar

StartChar: edieresis
Encoding: 235 235 34
Width: 1016
Flags: HW
LayerCount: 2
Fore
SplineSet
521.893554688 -168.291015625 m 6
 521.893554688 -168.291015625 462.154296875 -56.7216796875 462.154296875 -56.7626953125 c 5
 460.911132812 -54.443359375 460.1875 -51.8759765625 460.1875 -49.1845703125 c 4
 460.1875 -38.5400390625 471.006835938 -29.9267578125 484.258789062 -29.9267578125 c 6
 603.73828125 -29.9267578125 l 4
 617.041015625 -29.9267578125 627.809570312 -38.5830078125 627.809570312 -49.1845703125 c 4
 627.809570312 -51.8759765625 627.135742188 -54.443359375 625.89453125 -56.7626953125 c 6
 625.89453125 -56.7626953125 566.155273438 -168.291015625 566.102539062 -168.291015625 c 4
 562.427734375 -175.165039062 553.9375 -179.96875 543.999023438 -179.96875 c 4
 534.110351562 -179.96875 525.569335938 -175.165039062 521.893554688 -168.291015625 c 6
239.466796875 83.857421875 m 1
 226.466796875 37.857421875 295.466796875 32.857421875 295.466796875 32.857421875 c 1
 275.466796875 53.857421875 252.466796875 60.857421875 239.466796875 83.857421875 c 1
307.025390625 23.8955078125 m 0
 307.264648438 23.6552734375 760.448242188 23.8955078125 760.509765625 23.8955078125 c 0
 804.776367188 23.8955078125 840.686523438 59.8876953125 840.686523438 104.153320312 c 0
 840.686523438 123.290039062 833.969726562 140.869140625 822.768554688 154.662109375 c 2
 822.768554688 154.662109375 426.701171875 642.357421875 426.708984375 642.342773438 c 1
 423.34765625 646.48046875 421.326171875 651.76953125 421.326171875 657.510742188 c 0
 421.326171875 670.790039062 432.107421875 681.571289062 445.38671875 681.571289062 c 2
 445.38671875 681.571289062 677.321289062 681.547851562 677.3359375 681.571289062 c 0
 690.615234375 681.571289062 701.381835938 670.764648438 701.381835938 657.485351562 c 0
 701.381835938 652.649414062 699.948741709 648.145881882 697.4921875 644.37109375 c 2
 697.4921875 644.37109375 623.362304688 530.4296875 623.368164062 530.470703125 c 1
 620.908203125 526.697265625 619.47265625 522.150390625 619.47265625 517.314453125 c 0
 619.47265625 511.573242188 621.486328125 506.30078125 624.84765625 502.163085938 c 2
 624.84765625 502.163085938 667.3125 449.836914062 667.336914062 449.844726562 c 0
 671.749023438 444.41015625 678.458984375 440.927734375 686 440.927734375 c 0
 694.442382812 440.927734375 701.876953125 445.28515625 706.169921875 451.875 c 2
 706.169921875 451.875 848.189453125 669.939453125 848.139648438 669.85546875 c 1
 856.338867188 682.434570312 861.154296875 697.533203125 861.154296875 713.654296875 c 0
 861.154296875 757.919921875 825.21484375 793.857421875 780.948242188 793.857421875 c 2
 780.948242188 793.857421875 327.494140625 793.803710938 327.466796875 793.857421875 c 0
 283.200195312 793.857421875 247.290039062 757.866210938 247.290039062 713.599609375 c 0
 247.290039062 694.462890625 254.004882812 676.884765625 265.206054688 663.091796875 c 2
 265.206054688 663.091796875 661.275390625 175.396484375 661.267578125 175.413085938 c 1
 664.626953125 171.2734375 666.650390625 165.984375 666.650390625 160.243164062 c 0
 666.650390625 146.963867188 655.466796875 136.182617188 642.587890625 136.182617188 c 2
 642.587890625 136.182617188 410.716796875 136.106445312 410.640625 136.182617188 c 1
 455.466796875 123.857421875 507.025390625 29.8427734375 307.025390625 23.8955078125 c 0
EndSplineSet
EndChar

StartChar: igrave
Encoding: 236 236 35
Width: 1016
Flags: HW
LayerCount: 2
Fore
SplineSet
521.893554688 -168.291015625 m 6
 521.893554688 -168.291015625 462.154296875 -56.7216796875 462.154296875 -56.7626953125 c 5
 460.911132812 -54.443359375 460.1875 -51.8759765625 460.1875 -49.1845703125 c 4
 460.1875 -38.5400390625 471.006835938 -29.9267578125 484.258789062 -29.9267578125 c 6
 603.73828125 -29.9267578125 l 4
 617.041015625 -29.9267578125 627.809570312 -38.5830078125 627.809570312 -49.1845703125 c 4
 627.809570312 -51.8759765625 627.135742188 -54.443359375 625.89453125 -56.7626953125 c 6
 625.89453125 -56.7626953125 566.155273438 -168.291015625 566.102539062 -168.291015625 c 4
 562.427734375 -175.165039062 553.9375 -179.96875 543.999023438 -179.96875 c 4
 534.110351562 -179.96875 525.569335938 -175.165039062 521.893554688 -168.291015625 c 6
492.466796875 136.193359375 m 1
 559.237304688 136.19140625 642.587890625 136.182617188 642.587890625 136.182617188 c 2
 655.466796875 136.181640625 666.650390625 146.963867188 666.650390625 160.243164062 c 0
 666.650390625 165.984375 664.626953125 171.2734375 661.267578125 175.413085938 c 1
 661.275390625 175.396484375 265.206054688 663.091796875 265.206054688 663.091796875 c 2
 254.004882812 676.884765625 247.290039062 694.462890625 247.290039062 713.599609375 c 0
 247.290039062 757.866210938 283.200195312 793.857421875 327.466796875 793.857421875 c 0
 327.494140625 793.803710938 780.948242188 793.857421875 780.948242188 793.857421875 c 2
 825.21484375 793.857421875 861.154296875 757.919921875 861.154296875 713.654296875 c 0
 861.154296875 697.533203125 856.338867188 682.434570312 848.139648438 669.85546875 c 1
 848.189453125 669.939453125 706.169921875 451.875 706.169921875 451.875 c 2
 701.876953125 445.28515625 694.442382812 440.927734375 686 440.927734375 c 0
 678.458984375 440.927734375 671.749023438 444.41015625 667.336914062 449.844726562 c 0
 667.3125 449.836914062 624.84765625 502.163085938 624.84765625 502.163085938 c 2
 621.486328125 506.30078125 619.47265625 511.573242188 619.47265625 517.314453125 c 0
 619.47265625 522.150390625 620.908203125 526.697265625 623.368164062 530.470703125 c 1
 623.362304688 530.4296875 697.4921875 644.37109375 697.4921875 644.37109375 c 2
 699.934601627 648.124153962 701.381835938 652.649414062 701.381835938 657.485351562 c 0
 701.381835938 670.764648438 690.615234375 681.571289062 677.3359375 681.571289062 c 0
 677.321289062 681.547851562 445.38671875 681.571289062 445.38671875 681.571289062 c 2
 432.107421875 681.571289062 421.326171875 670.790039062 421.326171875 657.510742188 c 0
 421.326171875 651.76953125 423.34765625 646.48046875 426.708984375 642.342773438 c 1
 426.701171875 642.357421875 822.768554688 154.662109375 822.768554688 154.662109375 c 2
 833.969726562 140.869140625 840.686523438 123.290039062 840.686523438 104.153320312 c 0
 840.686523438 59.8876953125 804.776367188 23.8955078125 760.509765625 23.8955078125 c 0
 760.477539062 23.8955078125 633.884765625 23.9228515625 514.466796875 23.9150390625 c 1
 535.466796875 45.857421875 597.466796875 138.857421875 492.466796875 136.193359375 c 1
EndSplineSet
EndChar

StartChar: iacute
Encoding: 237 237 36
Width: 1016
Flags: HW
LayerCount: 2
Fore
SplineSet
521.893554688 -168.291015625 m 6
 521.893554688 -168.291015625 462.154296875 -56.7216796875 462.154296875 -56.7626953125 c 5
 460.911132812 -54.443359375 460.1875 -51.8759765625 460.1875 -49.1845703125 c 4
 460.1875 -38.5400390625 471.006835938 -29.9267578125 484.258789062 -29.9267578125 c 6
 603.73828125 -29.9267578125 l 4
 617.041015625 -29.9267578125 627.809570312 -38.5830078125 627.809570312 -49.1845703125 c 4
 627.809570312 -51.8759765625 627.135742188 -54.443359375 625.89453125 -56.7626953125 c 6
 625.89453125 -56.7626953125 566.155273438 -168.291015625 566.102539062 -168.291015625 c 4
 562.427734375 -175.165039062 553.9375 -179.96875 543.999023438 -179.96875 c 4
 534.110351562 -179.96875 525.569335938 -175.165039062 521.893554688 -168.291015625 c 6
593.466796875 136.1875 m 1
 622.177734375 136.184570312 642.587890625 136.182617188 642.587890625 136.182617188 c 2
 655.466796875 136.181640625 666.650390625 146.963867188 666.650390625 160.243164062 c 0
 666.650390625 165.984375 664.626953125 171.2734375 661.267578125 175.413085938 c 1
 661.275390625 175.396484375 265.206054688 663.091796875 265.206054688 663.091796875 c 2
 254.004882812 676.884765625 247.290039062 694.462890625 247.290039062 713.599609375 c 0
 247.290039062 757.866210938 283.200195312 793.857421875 327.466796875 793.857421875 c 0
 327.494140625 793.803710938 780.948242188 793.857421875 780.948242188 793.857421875 c 2
 825.21484375 793.857421875 861.154296875 757.919921875 861.154296875 713.654296875 c 0
 861.154296875 697.533203125 856.338867188 682.434570312 848.139648438 669.85546875 c 1
 848.189453125 669.939453125 706.169921875 451.875 706.169921875 451.875 c 2
 701.876953125 445.28515625 694.442382812 440.927734375 686 440.927734375 c 0
 678.458984375 440.927734375 671.749023438 444.41015625 667.336914062 449.844726562 c 0
 667.3125 449.836914062 624.84765625 502.163085938 624.84765625 502.163085938 c 2
 621.486328125 506.30078125 619.47265625 511.573242188 619.47265625 517.314453125 c 0
 619.47265625 522.150390625 620.908203125 526.697265625 623.368164062 530.470703125 c 1
 623.362304688 530.4296875 697.4921875 644.37109375 697.4921875 644.37109375 c 2
 699.948681333 648.145789108 701.381835938 652.649414062 701.381835938 657.485351562 c 0
 701.381835938 670.764648438 690.615234375 681.571289062 677.3359375 681.571289062 c 0
 677.321289062 681.547851562 445.38671875 681.571289062 445.38671875 681.571289062 c 2
 432.107421875 681.571289062 421.326171875 670.790039062 421.326171875 657.510742188 c 0
 421.326171875 651.76953125 423.34765625 646.48046875 426.708984375 642.342773438 c 1
 426.701171875 642.357421875 822.768554688 154.662109375 822.768554688 154.662109375 c 2
 833.969726562 140.869140625 840.686523438 123.290039062 840.686523438 104.153320312 c 0
 840.686523438 59.8876953125 804.776367188 23.8955078125 760.509765625 23.8955078125 c 0
 760.490234375 23.8955078125 715.3125 23.9189453125 653.466796875 23.919921875 c 1
 687.466796875 107.857421875 612.466796875 91.857421875 593.466796875 136.1875 c 1
EndSplineSet
EndChar

StartChar: icircumflex
Encoding: 238 238 37
Width: 1016
Flags: HW
LayerCount: 2
Fore
SplineSet
521.893554688 -168.291015625 m 6
 521.893554688 -168.291015625 462.154296875 -56.7216796875 462.154296875 -56.7626953125 c 5
 460.911132812 -54.443359375 460.1875 -51.8759765625 460.1875 -49.1845703125 c 4
 460.1875 -38.5400390625 471.006835938 -29.9267578125 484.258789062 -29.9267578125 c 6
 603.73828125 -29.9267578125 l 4
 617.041015625 -29.9267578125 627.809570312 -38.5830078125 627.809570312 -49.1845703125 c 4
 627.809570312 -51.8759765625 627.135742188 -54.443359375 625.89453125 -56.7626953125 c 6
 625.89453125 -56.7626953125 566.155273438 -168.291015625 566.102539062 -168.291015625 c 4
 562.427734375 -175.165039062 553.9375 -179.96875 543.999023438 -179.96875 c 4
 534.110351562 -179.96875 525.569335938 -175.165039062 521.893554688 -168.291015625 c 6
666.650390625 160.243164062 m 1
 666.650390625 165.984375 664.626953125 171.2734375 661.267578125 175.413085938 c 1
 661.275390625 175.396484375 265.206054688 663.091796875 265.206054688 663.091796875 c 2
 254.004882812 676.884765625 247.290039062 694.462890625 247.290039062 713.599609375 c 0
 247.290039062 757.866210938 283.200195312 793.857421875 327.466796875 793.857421875 c 0
 327.494140625 793.803710938 780.948242188 793.857421875 780.948242188 793.857421875 c 2
 825.21484375 793.857421875 861.154296875 757.919921875 861.154296875 713.654296875 c 0
 861.154296875 697.533203125 856.338867188 682.434570312 848.139648438 669.85546875 c 1
 848.189453125 669.939453125 706.169921875 451.875 706.169921875 451.875 c 2
 701.876953125 445.28515625 694.442382812 440.927734375 686 440.927734375 c 0
 678.458984375 440.927734375 671.749023438 444.41015625 667.336914062 449.844726562 c 0
 667.3125 449.836914062 624.84765625 502.163085938 624.84765625 502.163085938 c 2
 621.486328125 506.30078125 619.47265625 511.573242188 619.47265625 517.314453125 c 0
 619.47265625 522.150390625 620.908203125 526.697265625 623.368164062 530.470703125 c 1
 623.362304688 530.4296875 697.4921875 644.37109375 697.4921875 644.37109375 c 2
 699.948629597 648.145709609 701.381835938 652.649414062 701.381835938 657.485351562 c 0
 701.381835938 670.764648438 690.615234375 681.571289062 677.3359375 681.571289062 c 0
 677.321289062 681.547851562 445.38671875 681.571289062 445.38671875 681.571289062 c 2
 432.107421875 681.571289062 421.326171875 670.790039062 421.326171875 657.510742188 c 0
 421.326171875 651.76953125 423.34765625 646.48046875 426.708984375 642.342773438 c 1
 426.701171875 642.357421875 822.672851562 154.930664062 822.768554688 154.662109375 c 2
 833.969726562 140.869140625 840.686523438 123.290039062 840.686523438 104.153320312 c 1
 780.583007812 121.9296875 705.013671875 228.338867188 666.650390625 160.243164062 c 1
EndSplineSet
EndChar

StartChar: idieresis
Encoding: 239 239 38
Width: 1016
Flags: HW
LayerCount: 2
Fore
SplineSet
521.893554688 -168.291015625 m 6
 521.893554688 -168.291015625 462.154296875 -56.7216796875 462.154296875 -56.7626953125 c 5
 460.911132812 -54.443359375 460.1875 -51.8759765625 460.1875 -49.1845703125 c 4
 460.1875 -38.5400390625 471.006835938 -29.9267578125 484.258789062 -29.9267578125 c 6
 603.73828125 -29.9267578125 l 4
 617.041015625 -29.9267578125 627.809570312 -38.5830078125 627.809570312 -49.1845703125 c 4
 627.809570312 -51.8759765625 627.135742188 -54.443359375 625.89453125 -56.7626953125 c 6
 625.89453125 -56.7626953125 566.155273438 -168.291015625 566.102539062 -168.291015625 c 4
 562.427734375 -175.165039062 553.9375 -179.96875 543.999023438 -179.96875 c 4
 534.110351562 -179.96875 525.569335938 -175.165039062 521.893554688 -168.291015625 c 6
822.768554688 154.662109375 m 1
 822.768554688 154.662109375 426.701171875 642.357421875 426.708984375 642.342773438 c 1
 423.34765625 646.48046875 421.326171875 651.76953125 421.326171875 657.510742188 c 0
 421.326171875 670.790039062 432.107421875 681.571289062 445.38671875 681.571289062 c 2
 445.38671875 681.571289062 677.321289062 681.547851562 677.3359375 681.571289062 c 0
 690.615234375 681.571289062 701.381835938 670.764648438 701.381835938 657.485351562 c 0
 701.381835938 652.649414062 699.948478623 648.14547762 697.4921875 644.37109375 c 2
 697.4921875 644.37109375 623.362304688 530.4296875 623.368164062 530.470703125 c 1
 620.908203125 526.697265625 619.47265625 522.150390625 619.47265625 517.314453125 c 0
 619.47265625 511.573242188 621.486328125 506.30078125 624.84765625 502.163085938 c 2
 624.84765625 502.163085938 667.3125 449.836914062 667.336914062 449.844726562 c 0
 671.749023438 444.41015625 678.458984375 440.927734375 686 440.927734375 c 0
 694.442382812 440.927734375 701.876953125 445.28515625 706.169921875 451.875 c 2
 706.169921875 451.875 848.189453125 669.939453125 848.139648438 669.85546875 c 1
 856.338867188 682.434570312 861.154296875 697.533203125 861.154296875 713.654296875 c 0
 861.154296875 757.919921875 825.21484375 793.857421875 780.948242188 793.857421875 c 2
 780.948242188 793.857421875 327.494140625 793.803710938 327.466796875 793.857421875 c 0
 283.200195312 793.857421875 247.290039062 757.866210938 247.290039062 713.599609375 c 0
 247.290039062 694.462890625 254.201171875 676.641601562 265.206054688 663.091796875 c 2
 265.206054688 663.091796875 647.859375 191.916992188 661.267578125 175.413085938 c 1
 712.466796875 171.857421875 674.466796875 260.857421875 822.768554688 154.662109375 c 1
EndSplineSet
EndChar

StartChar: eth
Encoding: 240 240 39
Width: 1016
Flags: HW
LayerCount: 2
Fore
SplineSet
521.893554688 -168.291015625 m 6
 521.893554688 -168.291015625 462.154296875 -56.7216796875 462.154296875 -56.7626953125 c 5
 460.911132812 -54.443359375 460.1875 -51.8759765625 460.1875 -49.1845703125 c 4
 460.1875 -38.5400390625 471.006835938 -29.9267578125 484.258789062 -29.9267578125 c 6
 603.73828125 -29.9267578125 l 4
 617.041015625 -29.9267578125 627.809570312 -38.5830078125 627.809570312 -49.1845703125 c 4
 627.809570312 -51.8759765625 627.135742188 -54.443359375 625.89453125 -56.7626953125 c 6
 625.89453125 -56.7626953125 566.155273438 -168.291015625 566.102539062 -168.291015625 c 4
 562.427734375 -175.165039062 553.9375 -179.96875 543.999023438 -179.96875 c 4
 534.110351562 -179.96875 525.569335938 -175.165039062 521.893554688 -168.291015625 c 6
621.110351562 224.857421875 m 1
 520.41796875 348.838867188 265.206054688 663.091796875 265.206054688 663.091796875 c 2
 254.201171875 676.641601562 247.290039062 694.462890625 247.290039062 713.599609375 c 0
 247.290039062 757.866210938 283.200195312 793.857421875 327.466796875 793.857421875 c 0
 327.494140625 793.803710938 780.948242188 793.857421875 780.948242188 793.857421875 c 2
 825.21484375 793.857421875 861.154296875 757.919921875 861.154296875 713.654296875 c 0
 861.154296875 697.533203125 856.338867188 682.434570312 848.139648438 669.85546875 c 1
 848.189453125 669.939453125 706.169921875 451.875 706.169921875 451.875 c 2
 701.876953125 445.28515625 694.442382812 440.927734375 686 440.927734375 c 0
 678.458984375 440.927734375 671.749023438 444.41015625 667.336914062 449.844726562 c 0
 667.3125 449.836914062 624.84765625 502.163085938 624.84765625 502.163085938 c 2
 621.486328125 506.30078125 619.47265625 511.573242188 619.47265625 517.314453125 c 0
 619.47265625 522.150390625 620.908203125 526.697265625 623.368164062 530.470703125 c 1
 623.362304688 530.4296875 697.4921875 644.37109375 697.4921875 644.37109375 c 2
 699.948067767 648.144846291 701.381835938 652.649414062 701.381835938 657.485351562 c 0
 701.381835938 670.764648438 690.615234375 681.571289062 677.3359375 681.571289062 c 0
 677.321289062 681.547851562 445.38671875 681.571289062 445.38671875 681.571289062 c 2
 432.107421875 681.571289062 421.326171875 670.790039062 421.326171875 657.510742188 c 0
 421.326171875 651.76953125 423.34765625 646.48046875 426.708984375 642.342773438 c 1
 426.703125 642.353515625 624.559570312 398.725585938 740.5859375 255.857421875 c 1
 664.466796875 283.857421875 596.466796875 311.857421875 621.110351562 224.857421875 c 1
EndSplineSet
EndChar

StartChar: ntilde
Encoding: 241 241 40
Width: 1016
Flags: HW
LayerCount: 2
Fore
SplineSet
521.893554688 -168.291015625 m 6
 521.893554688 -168.291015625 462.154296875 -56.7216796875 462.154296875 -56.7626953125 c 5
 460.911132812 -54.443359375 460.1875 -51.8759765625 460.1875 -49.1845703125 c 4
 460.1875 -38.5400390625 471.006835938 -29.9267578125 484.258789062 -29.9267578125 c 6
 603.73828125 -29.9267578125 l 4
 617.041015625 -29.9267578125 627.809570312 -38.5830078125 627.809570312 -49.1845703125 c 4
 627.809570312 -51.8759765625 627.135742188 -54.443359375 625.89453125 -56.7626953125 c 6
 625.89453125 -56.7626953125 566.155273438 -168.291015625 566.102539062 -168.291015625 c 4
 562.427734375 -175.165039062 553.9375 -179.96875 543.999023438 -179.96875 c 4
 534.110351562 -179.96875 525.569335938 -175.165039062 521.893554688 -168.291015625 c 6
636.633789062 383.857421875 m 1
 533.815429688 510.461914062 426.705078125 642.350585938 426.708984375 642.342773438 c 1
 423.34765625 646.48046875 421.326171875 651.76953125 421.326171875 657.510742188 c 0
 421.326171875 670.790039062 432.107421875 681.571289062 445.38671875 681.571289062 c 2
 445.38671875 681.571289062 677.321289062 681.547851562 677.3359375 681.571289062 c 0
 690.615234375 681.571289062 701.381835938 670.764648438 701.381835938 657.485351562 c 0
 701.381835938 652.649414062 699.94884262 648.146036943 697.4921875 644.37109375 c 2
 697.4921875 644.37109375 623.362304688 530.4296875 623.368164062 530.470703125 c 1
 620.908203125 526.697265625 619.47265625 522.150390625 619.47265625 517.314453125 c 0
 619.47265625 511.573242188 621.486328125 506.30078125 624.84765625 502.163085938 c 2
 624.84765625 502.163085938 667.3125 449.836914062 667.336914062 449.844726562 c 0
 671.749023438 444.41015625 678.458984375 440.927734375 686 440.927734375 c 0
 694.442382812 440.927734375 701.876953125 445.28515625 706.169921875 451.875 c 2
 706.169921875 451.875 848.189453125 669.939453125 848.139648438 669.85546875 c 1
 856.338867188 682.434570312 861.154296875 697.533203125 861.154296875 713.654296875 c 0
 861.154296875 757.919921875 825.21484375 793.857421875 780.948242188 793.857421875 c 2
 780.948242188 793.857421875 327.494140625 793.803710938 327.466796875 793.857421875 c 0
 283.200195312 793.857421875 247.290039062 757.866210938 247.290039062 713.599609375 c 0
 247.290039062 694.462890625 254.201171875 676.641601562 265.206054688 663.091796875 c 2
 265.206054688 663.091796875 413.431640625 480.576171875 528.526367188 338.857421875 c 1
 491.466796875 447.857421875 612.466796875 395.857421875 636.633789062 383.857421875 c 1
EndSplineSet
EndChar

StartChar: ograve
Encoding: 242 242 41
Width: 1016
Flags: HW
LayerCount: 2
Fore
SplineSet
521.893554688 -168.291015625 m 6
 521.893554688 -168.291015625 462.154296875 -56.7216796875 462.154296875 -56.7626953125 c 5
 460.911132812 -54.443359375 460.1875 -51.8759765625 460.1875 -49.1845703125 c 4
 460.1875 -38.5400390625 471.006835938 -29.9267578125 484.258789062 -29.9267578125 c 6
 603.73828125 -29.9267578125 l 4
 617.041015625 -29.9267578125 627.809570312 -38.5830078125 627.809570312 -49.1845703125 c 4
 627.809570312 -51.8759765625 627.135742188 -54.443359375 625.89453125 -56.7626953125 c 6
 625.89453125 -56.7626953125 566.155273438 -168.291015625 566.102539062 -168.291015625 c 4
 562.427734375 -175.165039062 553.9375 -179.96875 543.999023438 -179.96875 c 4
 534.110351562 -179.96875 525.569335938 -175.165039062 521.893554688 -168.291015625 c 6
466.803710938 414.857421875 m 1
 366.614257812 538.224609375 265.206054688 663.091796875 265.206054688 663.091796875 c 2
 254.201171875 676.641601562 247.290039062 694.462890625 247.290039062 713.599609375 c 0
 247.290039062 757.866210938 283.200195312 793.857421875 327.466796875 793.857421875 c 0
 327.494140625 793.803710938 780.948242188 793.857421875 780.948242188 793.857421875 c 2
 825.21484375 793.857421875 861.154296875 757.919921875 861.154296875 713.654296875 c 0
 861.154296875 697.533203125 856.338867188 682.434570312 848.139648438 669.85546875 c 1
 848.189453125 669.939453125 706.169921875 451.875 706.169921875 451.875 c 2
 701.876953125 445.28515625 694.442382812 440.927734375 686 440.927734375 c 0
 678.458984375 440.927734375 671.749023438 444.41015625 667.336914062 449.844726562 c 0
 667.3125 449.836914062 624.84765625 502.163085938 624.84765625 502.163085938 c 2
 621.486328125 506.30078125 619.47265625 511.573242188 619.47265625 517.314453125 c 0
 619.47265625 522.150390625 620.908203125 526.697265625 623.368164062 530.470703125 c 1
 623.362304688 530.4296875 697.4921875 644.37109375 697.4921875 644.37109375 c 2
 699.947810386 648.144450794 701.381835938 652.649414062 701.381835938 657.485351562 c 0
 701.381835938 670.764648438 690.615234375 681.571289062 677.3359375 681.571289062 c 0
 677.321289062 681.547851562 445.38671875 681.571289062 445.38671875 681.571289062 c 2
 432.107421875 681.571289062 421.326171875 670.790039062 421.326171875 657.510742188 c 0
 421.326171875 651.76953125 423.34765625 646.48046875 426.708984375 642.342773438 c 1
 426.706054688 642.348632812 490.901367188 563.302734375 567.603515625 468.857421875 c 1
 533.495117188 494.946289062 414.095703125 484.862304688 466.803710938 414.857421875 c 1
EndSplineSet
EndChar

StartChar: oacute
Encoding: 243 243 42
Width: 1016
Flags: HW
LayerCount: 2
Fore
SplineSet
521.893554688 -168.291015625 m 6
 521.893554688 -168.291015625 462.154296875 -56.7216796875 462.154296875 -56.7626953125 c 5
 460.911132812 -54.443359375 460.1875 -51.8759765625 460.1875 -49.1845703125 c 4
 460.1875 -38.5400390625 471.006835938 -29.9267578125 484.258789062 -29.9267578125 c 6
 603.73828125 -29.9267578125 l 4
 617.041015625 -29.9267578125 627.809570312 -38.5830078125 627.809570312 -49.1845703125 c 4
 627.809570312 -51.8759765625 627.135742188 -54.443359375 625.89453125 -56.7626953125 c 6
 625.89453125 -56.7626953125 566.155273438 -168.291015625 566.102539062 -168.291015625 c 4
 562.427734375 -175.165039062 553.9375 -179.96875 543.999023438 -179.96875 c 4
 534.110351562 -179.96875 525.569335938 -175.165039062 521.893554688 -168.291015625 c 6
421.325195312 470.857421875 m 1
 338.088867188 573.348632812 265.206054688 663.091796875 265.206054688 663.091796875 c 2
 254.201171875 676.641601562 247.290039062 694.462890625 247.290039062 713.599609375 c 0
 247.290039062 757.866210938 283.200195312 793.857421875 327.466796875 793.857421875 c 0
 327.494140625 793.803710938 780.948242188 793.857421875 780.948242188 793.857421875 c 2
 825.21484375 793.857421875 861.154296875 757.919921875 861.154296875 713.654296875 c 0
 861.154296875 697.533203125 856.338867188 682.434570312 848.139648438 669.85546875 c 1
 848.189453125 669.939453125 706.169921875 451.875 706.169921875 451.875 c 2
 701.876953125 445.28515625 694.442382812 440.927734375 686 440.927734375 c 0
 678.458984375 440.927734375 671.749023438 444.41015625 667.336914062 449.844726562 c 0
 667.3125 449.836914062 624.84765625 502.163085938 624.84765625 502.163085938 c 2
 621.486328125 506.30078125 619.47265625 511.573242188 619.47265625 517.314453125 c 0
 619.47265625 522.150390625 620.908203125 526.697265625 623.368164062 530.470703125 c 1
 623.362304688 530.4296875 697.4921875 644.37109375 697.4921875 644.37109375 c 2
 699.94845115 648.145435404 701.381835938 652.649414062 701.381835938 657.485351562 c 0
 701.381835938 670.764648438 690.615234375 681.571289062 677.3359375 681.571289062 c 0
 677.321289062 681.547851562 445.38671875 681.571289062 445.38671875 681.571289062 c 2
 432.107421875 681.571289062 421.326171875 670.790039062 421.326171875 657.510742188 c 0
 421.326171875 651.76953125 423.34765625 646.48046875 426.708984375 642.342773438 c 1
 426.706054688 642.34765625 468.153320312 591.606445312 523.748046875 522.857421875 c 1
 491.466796875 523.857421875 395.466796875 586.857421875 421.325195312 470.857421875 c 1
EndSplineSet
EndChar

StartChar: ocircumflex
Encoding: 244 244 43
Width: 1016
Flags: HW
LayerCount: 2
Fore
SplineSet
521.893554688 -168.291015625 m 6
 521.893554688 -168.291015625 462.154296875 -56.7216796875 462.154296875 -56.7626953125 c 5
 460.911132812 -54.443359375 460.1875 -51.8759765625 460.1875 -49.1845703125 c 4
 460.1875 -38.5400390625 471.006835938 -29.9267578125 484.258789062 -29.9267578125 c 6
 603.73828125 -29.9267578125 l 4
 617.041015625 -29.9267578125 627.809570312 -38.5830078125 627.809570312 -49.1845703125 c 4
 627.809570312 -51.8759765625 627.135742188 -54.443359375 625.89453125 -56.7626953125 c 6
 625.89453125 -56.7626953125 566.155273438 -168.291015625 566.102539062 -168.291015625 c 4
 562.427734375 -175.165039062 553.9375 -179.96875 543.999023438 -179.96875 c 4
 534.110351562 -179.96875 525.569335938 -175.165039062 521.893554688 -168.291015625 c 6
505.881835938 544.857421875 m 1
 459.622070312 602.16015625 426.70703125 642.346679688 426.708984375 642.342773438 c 1
 423.34765625 646.48046875 421.326171875 651.76953125 421.326171875 657.510742188 c 0
 421.326171875 670.790039062 432.107421875 681.571289062 445.38671875 681.571289062 c 2
 445.38671875 681.571289062 677.321289062 681.547851562 677.3359375 681.571289062 c 0
 690.615234375 681.571289062 701.381835938 670.764648438 701.381835938 657.485351562 c 0
 701.381835938 652.649414062 699.948552304 648.145590838 697.4921875 644.37109375 c 2
 697.4921875 644.37109375 623.362304688 530.4296875 623.368164062 530.470703125 c 1
 620.908203125 526.697265625 619.47265625 522.150390625 619.47265625 517.314453125 c 0
 619.47265625 511.573242188 621.486328125 506.30078125 624.84765625 502.163085938 c 2
 624.84765625 502.163085938 667.3125 449.836914062 667.336914062 449.844726562 c 0
 671.749023438 444.41015625 678.458984375 440.927734375 686 440.927734375 c 0
 694.442382812 440.927734375 701.876953125 445.28515625 706.169921875 451.875 c 2
 706.169921875 451.875 848.189453125 669.939453125 848.139648438 669.85546875 c 1
 856.338867188 682.434570312 861.154296875 697.533203125 861.154296875 713.654296875 c 0
 861.154296875 757.919921875 825.21484375 793.857421875 780.948242188 793.857421875 c 2
 780.948242188 793.857421875 327.494140625 793.803710938 327.466796875 793.857421875 c 0
 283.200195312 793.857421875 247.290039062 757.866210938 247.290039062 713.599609375 c 0
 247.290039062 694.462890625 254.201171875 676.641601562 265.206054688 663.091796875 c 2
 265.206054688 663.091796875 305.118164062 613.946289062 359.602539062 546.857421875 c 1
 348.201171875 667.825195312 449.504882812 568.857421875 505.881835938 544.857421875 c 1
EndSplineSet
EndChar

StartChar: otilde
Encoding: 245 245 44
Width: 1016
Flags: HW
LayerCount: 2
Fore
SplineSet
521.893554688 -168.291015625 m 6
 521.893554688 -168.291015625 462.154296875 -56.7216796875 462.154296875 -56.7626953125 c 5
 460.911132812 -54.443359375 460.1875 -51.8759765625 460.1875 -49.1845703125 c 4
 460.1875 -38.5400390625 471.006835938 -29.9267578125 484.258789062 -29.9267578125 c 6
 603.73828125 -29.9267578125 l 4
 617.041015625 -29.9267578125 627.809570312 -38.5830078125 627.809570312 -49.1845703125 c 4
 627.809570312 -51.8759765625 627.135742188 -54.443359375 625.89453125 -56.7626953125 c 6
 625.89453125 -56.7626953125 566.155273438 -168.291015625 566.102539062 -168.291015625 c 4
 562.427734375 -175.165039062 553.9375 -179.96875 543.999023438 -179.96875 c 4
 534.110351562 -179.96875 525.569335938 -175.165039062 521.893554688 -168.291015625 c 6
290.55078125 631.857421875 m 1
 257.04296875 673.118164062 265.206054688 663.091796875 265.206054688 663.091796875 c 2
 254.21484375 676.637695312 247.290039062 694.462890625 247.290039062 713.599609375 c 0
 247.290039062 757.866210938 283.200195312 793.857421875 327.466796875 793.857421875 c 0
 327.494140625 793.803710938 780.948242188 793.857421875 780.948242188 793.857421875 c 2
 825.21484375 793.857421875 861.154296875 757.919921875 861.154296875 713.654296875 c 0
 861.154296875 697.533203125 856.338867188 682.434570312 848.139648438 669.85546875 c 1
 848.189453125 669.939453125 706.169921875 451.875 706.169921875 451.875 c 2
 701.876953125 445.28515625 694.442382812 440.927734375 686 440.927734375 c 0
 678.458984375 440.927734375 671.749023438 444.41015625 667.336914062 449.844726562 c 0
 667.3125 449.836914062 624.84765625 502.163085938 624.84765625 502.163085938 c 2
 621.486328125 506.30078125 619.47265625 511.573242188 619.47265625 517.314453125 c 0
 619.47265625 522.150390625 620.908203125 526.697265625 623.368164062 530.470703125 c 1
 623.362304688 530.4296875 697.4921875 644.37109375 697.4921875 644.37109375 c 2
 699.947570332 648.144081923 701.381835938 652.649414062 701.381835938 657.485351562 c 0
 701.381835938 670.764648438 690.615234375 681.571289062 677.3359375 681.571289062 c 0
 677.321289062 681.547851562 445.38671875 681.571289062 445.38671875 681.571289062 c 2
 432.107421875 681.571289062 421.326171875 670.790039062 421.326171875 657.510742188 c 0
 421.326171875 651.76953125 423.34765625 646.48046875 426.708984375 642.342773438 c 1
 426.708007812 642.345703125 419.314453125 651.447265625 439.284179688 626.857421875 c 1
 397.466796875 619.857421875 327.0390625 736.96875 290.55078125 631.857421875 c 1
EndSplineSet
EndChar

StartChar: odieresis
Encoding: 246 246 45
Width: 1016
Flags: HW
LayerCount: 2
Fore
SplineSet
521.893554688 -168.291015625 m 6
 521.893554688 -168.291015625 462.154296875 -56.7216796875 462.154296875 -56.7626953125 c 5
 460.911132812 -54.443359375 460.1875 -51.8759765625 460.1875 -49.1845703125 c 4
 460.1875 -38.5400390625 471.006835938 -29.9267578125 484.258789062 -29.9267578125 c 6
 603.73828125 -29.9267578125 l 4
 617.041015625 -29.9267578125 627.809570312 -38.5830078125 627.809570312 -49.1845703125 c 4
 627.809570312 -51.8759765625 627.135742188 -54.443359375 625.89453125 -56.7626953125 c 6
 625.89453125 -56.7626953125 566.155273438 -168.291015625 566.102539062 -168.291015625 c 4
 562.427734375 -175.165039062 553.9375 -179.96875 543.999023438 -179.96875 c 4
 534.110351562 -179.96875 525.569335938 -175.165039062 521.893554688 -168.291015625 c 6
421.325195312 657.510742188 m 1
 421.326171875 670.790039062 432.107421875 681.571289062 445.38671875 681.571289062 c 2
 445.5703125 681.75390625 677.321289062 681.547851562 677.3359375 681.571289062 c 0
 690.615234375 681.571289062 701.381835938 670.764648438 701.381835938 657.485351562 c 0
 701.381835938 652.649414062 699.947998906 648.144740477 697.4921875 644.37109375 c 2
 697.4921875 644.37109375 623.362304688 530.4296875 623.368164062 530.470703125 c 1
 620.908203125 526.697265625 619.47265625 522.150390625 619.47265625 517.314453125 c 0
 619.47265625 511.573242188 621.486328125 506.30078125 624.84765625 502.163085938 c 2
 624.84765625 502.163085938 667.3125 449.836914062 667.336914062 449.844726562 c 0
 671.749023438 444.41015625 678.458984375 440.927734375 686 440.927734375 c 0
 694.442382812 440.927734375 701.876953125 445.28515625 706.169921875 451.875 c 2
 706.169921875 451.875 848.189453125 669.939453125 848.139648438 669.85546875 c 1
 856.338867188 682.434570312 861.154296875 697.533203125 861.154296875 713.654296875 c 0
 861.154296875 757.919921875 825.21484375 793.857421875 780.948242188 793.857421875 c 2
 780.948242188 793.857421875 327.494140625 793.803710938 327.466796875 793.857421875 c 0
 283.200195312 793.857421875 247.290039062 757.866210938 247.290039062 713.599609375 c 0
 247.290039062 703.092773438 249.314453125 693.055664062 252.993164062 683.857421875 c 1
 340.466796875 761.857421875 361.466796875 669.857421875 421.325195312 657.510742188 c 1
EndSplineSet
EndChar

StartChar: divide
Encoding: 247 247 46
Width: 1016
Flags: HW
LayerCount: 2
Fore
SplineSet
521.893554688 -168.291015625 m 6
 521.893554688 -168.291015625 462.154296875 -56.7216796875 462.154296875 -56.7626953125 c 5
 460.911132812 -54.443359375 460.1875 -51.8759765625 460.1875 -49.1845703125 c 4
 460.1875 -38.5400390625 471.006835938 -29.9267578125 484.258789062 -29.9267578125 c 6
 603.73828125 -29.9267578125 l 4
 617.041015625 -29.9267578125 627.809570312 -38.5830078125 627.809570312 -49.1845703125 c 4
 627.809570312 -51.8759765625 627.135742188 -54.443359375 625.89453125 -56.7626953125 c 6
 625.89453125 -56.7626953125 566.155273438 -168.291015625 566.102539062 -168.291015625 c 4
 562.427734375 -175.165039062 553.9375 -179.96875 543.999023438 -179.96875 c 4
 534.110351562 -179.96875 525.569335938 -175.165039062 521.893554688 -168.291015625 c 6
258.109375 753.857421875 m 1
 271.997070312 777.760742188 297.86328125 793.857421875 327.466796875 793.857421875 c 2
 780.948242188 793.857421875 l 2
 825.21484375 793.857421875 861.154296875 757.919921875 861.154296875 713.654296875 c 0
 861.154296875 697.533203125 856.338867188 682.434570312 848.139648438 669.85546875 c 1
 848.189453125 669.939453125 706.169921875 451.875 706.169921875 451.875 c 2
 701.876953125 445.28515625 694.442382812 440.927734375 686 440.927734375 c 0
 678.458984375 440.927734375 671.749023438 444.41015625 667.336914062 449.844726562 c 0
 667.3125 449.836914062 624.84765625 502.163085938 624.84765625 502.163085938 c 2
 621.486328125 506.30078125 619.47265625 511.573242188 619.47265625 517.314453125 c 0
 619.47265625 522.150390625 620.908203125 526.697265625 623.368164062 530.470703125 c 1
 623.362304688 530.4296875 697.4921875 644.37109375 697.4921875 644.37109375 c 2
 699.947352596 648.143747345 701.381835938 652.649414062 701.381835938 657.485351562 c 0
 701.381835938 670.764648438 690.615234375 681.571289062 677.3359375 681.571289062 c 0
 677.321289062 681.547851562 445.55859375 681.646484375 445.38671875 681.571289062 c 2
 438.416015625 681.571289062 432.133789062 678.600585938 427.73828125 673.857421875 c 1
 305.466796875 686.857421875 400.466796875 811.857421875 258.109375 753.857421875 c 1
EndSplineSet
EndChar

StartChar: oslash
Encoding: 248 248 47
Width: 1016
Flags: HW
LayerCount: 2
Fore
SplineSet
521.893554688 -168.291015625 m 6
 521.893554688 -168.291015625 462.154296875 -56.7216796875 462.154296875 -56.7626953125 c 5
 460.911132812 -54.443359375 460.1875 -51.8759765625 460.1875 -49.1845703125 c 4
 460.1875 -38.5400390625 471.006835938 -29.9267578125 484.258789062 -29.9267578125 c 6
 603.73828125 -29.9267578125 l 4
 617.041015625 -29.9267578125 627.809570312 -38.5830078125 627.809570312 -49.1845703125 c 4
 627.809570312 -51.8759765625 627.135742188 -54.443359375 625.89453125 -56.7626953125 c 6
 625.89453125 -56.7626953125 566.155273438 -168.291015625 566.102539062 -168.291015625 c 4
 562.427734375 -175.165039062 553.9375 -179.96875 543.999023438 -179.96875 c 4
 534.110351562 -179.96875 525.569335938 -175.165039062 521.893554688 -168.291015625 c 6
327.466796875 793.857421875 m 0
 327.407226562 793.86328125 780.948242188 793.857421875 780.948242188 793.857421875 c 2
 825.466796875 793.857421875 861.154296875 757.919921875 861.154296875 713.654296875 c 0
 861.154296875 697.533203125 856.338867188 682.434570312 848.139648438 669.85546875 c 1
 848.189453125 669.939453125 706.169921875 451.875 706.169921875 451.875 c 2
 701.876953125 445.28515625 694.442382812 440.927734375 686 440.927734375 c 0
 678.458984375 440.927734375 671.749023438 444.41015625 667.336914062 449.844726562 c 0
 667.3125 449.836914062 624.84765625 502.163085938 624.84765625 502.163085938 c 2
 621.486328125 506.30078125 619.47265625 511.573242188 619.47265625 517.314453125 c 0
 619.47265625 522.150390625 620.908203125 526.697265625 623.368164062 530.470703125 c 1
 623.362304688 530.4296875 697.4921875 644.37109375 697.4921875 644.37109375 c 2
 699.947684075 648.144256702 701.381835938 652.649414062 701.381835938 657.485351562 c 0
 701.381835938 670.764648438 690.615234375 681.571289062 677.3359375 681.571289062 c 0
 677.30859375 681.571289062 445.38671875 681.569335938 445.38671875 681.5703125 c 0
 464.466796875 804.857421875 416.466796875 784.760742188 327.466796875 793.857421875 c 0
EndSplineSet
EndChar

StartChar: ugrave
Encoding: 249 249 48
Width: 1016
Flags: HW
LayerCount: 2
Fore
SplineSet
521.893554688 -168.291015625 m 6
 521.893554688 -168.291015625 462.154296875 -56.7216796875 462.154296875 -56.7626953125 c 5
 460.911132812 -54.443359375 460.1875 -51.8759765625 460.1875 -49.1845703125 c 4
 460.1875 -38.5400390625 471.006835938 -29.9267578125 484.258789062 -29.9267578125 c 6
 603.73828125 -29.9267578125 l 4
 617.041015625 -29.9267578125 627.809570312 -38.5830078125 627.809570312 -49.1845703125 c 4
 627.809570312 -51.8759765625 627.135742188 -54.443359375 625.89453125 -56.7626953125 c 6
 625.89453125 -56.7626953125 566.155273438 -168.291015625 566.102539062 -168.291015625 c 4
 562.427734375 -175.165039062 553.9375 -179.96875 543.999023438 -179.96875 c 4
 534.110351562 -179.96875 525.569335938 -175.165039062 521.893554688 -168.291015625 c 6
503.466796875 681.571289062 m 1
 572.142578125 681.565429688 677.317382812 681.571289062 677.3359375 681.571289062 c 0
 690.615234375 681.571289062 701.381835938 670.764648438 701.381835938 657.485351562 c 0
 701.381835938 652.649414062 699.948794216 648.145962566 697.4921875 644.37109375 c 2
 697.4921875 644.37109375 623.362304688 530.4296875 623.368164062 530.470703125 c 1
 620.908203125 526.697265625 619.47265625 522.150390625 619.47265625 517.314453125 c 0
 619.47265625 511.573242188 621.486328125 506.30078125 624.84765625 502.163085938 c 2
 624.84765625 502.163085938 667.3125 449.836914062 667.336914062 449.844726562 c 0
 671.749023438 444.41015625 678.458984375 440.927734375 686 440.927734375 c 0
 694.442382812 440.927734375 701.876953125 445.28515625 706.169921875 451.875 c 2
 706.169921875 451.875 848.189453125 669.939453125 848.139648438 669.85546875 c 1
 856.338867188 682.434570312 861.154296875 697.533203125 861.154296875 713.654296875 c 0
 861.154296875 757.919921875 825.46484375 793.85546875 780.948242188 793.857421875 c 2
 780.948242188 793.857421875 607.783203125 793.852539062 475.466796875 793.873046875 c 1
 581.466796875 755.857421875 513.466796875 715.857421875 503.466796875 681.571289062 c 1
EndSplineSet
EndChar

StartChar: uacute
Encoding: 250 250 49
Width: 1016
Flags: HW
LayerCount: 2
Fore
SplineSet
521.893554688 -168.291015625 m 6
 521.893554688 -168.291015625 462.154296875 -56.7216796875 462.154296875 -56.7626953125 c 5
 460.911132812 -54.443359375 460.1875 -51.8759765625 460.1875 -49.1845703125 c 4
 460.1875 -38.5400390625 471.006835938 -29.9267578125 484.258789062 -29.9267578125 c 6
 603.73828125 -29.9267578125 l 4
 617.041015625 -29.9267578125 627.809570312 -38.5830078125 627.809570312 -49.1845703125 c 4
 627.809570312 -51.8759765625 627.135742188 -54.443359375 625.89453125 -56.7626953125 c 6
 625.89453125 -56.7626953125 566.155273438 -168.291015625 566.102539062 -168.291015625 c 4
 562.427734375 -175.165039062 553.9375 -179.96875 543.999023438 -179.96875 c 4
 534.110351562 -179.96875 525.569335938 -175.165039062 521.893554688 -168.291015625 c 6
625.466796875 681.5703125 m 1
 656.129882812 681.571289062 677.327148438 681.571289062 677.3359375 681.571289062 c 0
 690.615234375 681.571289062 701.381835938 670.764648438 701.381835938 657.485351562 c 0
 701.381835938 652.649414062 699.94853482 648.145563973 697.4921875 644.37109375 c 2
 697.4921875 644.37109375 623.362304688 530.4296875 623.368164062 530.470703125 c 1
 620.908203125 526.697265625 619.47265625 522.150390625 619.47265625 517.314453125 c 0
 619.47265625 511.573242188 621.486328125 506.30078125 624.84765625 502.163085938 c 2
 624.84765625 502.163085938 667.3125 449.836914062 667.336914062 449.844726562 c 0
 671.749023438 444.41015625 678.458984375 440.927734375 686 440.927734375 c 0
 694.442382812 440.927734375 701.876953125 445.28515625 706.169921875 451.875 c 2
 706.169921875 451.875 848.189453125 669.939453125 848.139648438 669.85546875 c 1
 856.338867188 682.434570312 861.154296875 697.533203125 861.154296875 713.654296875 c 0
 861.154296875 757.919921875 825.466796875 793.84765625 780.948242188 793.857421875 c 2
 780.948242188 793.857421875 714.413085938 793.8984375 631.466796875 793.891601562 c 1
 696.466796875 751.857421875 644.466796875 719.857421875 625.466796875 681.5703125 c 1
EndSplineSet
EndChar

StartChar: ucircumflex
Encoding: 251 251 50
Width: 1016
Flags: HW
LayerCount: 2
Fore
SplineSet
521.893554688 -168.291015625 m 6
 521.893554688 -168.291015625 462.154296875 -56.7216796875 462.154296875 -56.7626953125 c 5
 460.911132812 -54.443359375 460.1875 -51.8759765625 460.1875 -49.1845703125 c 4
 460.1875 -38.5400390625 471.006835938 -29.9267578125 484.258789062 -29.9267578125 c 6
 603.73828125 -29.9267578125 l 4
 617.041015625 -29.9267578125 627.809570312 -38.5830078125 627.809570312 -49.1845703125 c 4
 627.809570312 -51.8759765625 627.135742188 -54.443359375 625.89453125 -56.7626953125 c 6
 625.89453125 -56.7626953125 566.155273438 -168.291015625 566.102539062 -168.291015625 c 4
 562.427734375 -175.165039062 553.9375 -179.96875 543.999023438 -179.96875 c 4
 534.110351562 -179.96875 525.569335938 -175.165039062 521.893554688 -168.291015625 c 6
818.466796875 784.546875 m 1
 843.849609375 771.075195312 861.154296875 744.370117188 861.154296875 713.654296875 c 0
 861.154296875 697.533203125 856.338867188 682.434570312 848.139648438 669.85546875 c 1
 848.189453125 669.939453125 706.169921875 451.875 706.169921875 451.875 c 2
 701.876953125 445.28515625 694.442382812 440.927734375 686 440.927734375 c 0
 678.458984375 440.927734375 671.749023438 444.41015625 667.336914062 449.844726562 c 0
 667.3125 449.836914062 624.84765625 502.163085938 624.84765625 502.163085938 c 2
 621.486328125 506.30078125 619.47265625 511.573242188 619.47265625 517.314453125 c 0
 619.47265625 522.150390625 620.908203125 526.697265625 623.368164062 530.470703125 c 1
 623.362304688 530.4296875 697.4921875 644.37109375 697.4921875 644.37109375 c 2
 699.948996247 648.146273011 701.381835938 652.649414062 701.381835938 657.485351562 c 0
 701.381835938 669.721679688 692.6171875 676.627929688 689.466796875 678.28125 c 1
 729.466796875 714.857421875 819.466796875 663.857421875 818.466796875 784.546875 c 1
EndSplineSet
EndChar

StartChar: udieresis
Encoding: 252 252 51
Width: 1016
Flags: HW
LayerCount: 2
Fore
SplineSet
521.893554688 -168.291015625 m 6
 521.893554688 -168.291015625 462.154296875 -56.7216796875 462.154296875 -56.7626953125 c 5
 460.911132812 -54.443359375 460.1875 -51.8759765625 460.1875 -49.1845703125 c 4
 460.1875 -38.5400390625 471.006835938 -29.9267578125 484.258789062 -29.9267578125 c 6
 603.73828125 -29.9267578125 l 4
 617.041015625 -29.9267578125 627.809570312 -38.5830078125 627.809570312 -49.1845703125 c 4
 627.809570312 -51.8759765625 627.135742188 -54.443359375 625.89453125 -56.7626953125 c 6
 625.89453125 -56.7626953125 566.155273438 -168.291015625 566.102539062 -168.291015625 c 4
 562.427734375 -175.165039062 553.9375 -179.96875 543.999023438 -179.96875 c 4
 534.110351562 -179.96875 525.569335938 -175.165039062 521.893554688 -168.291015625 c 6
825.436523438 635 m 1
 780.983398438 566.806640625 706.169921875 451.875 706.169921875 451.875 c 2
 701.737304688 445.075195312 694.442382812 440.927734375 686 440.927734375 c 0
 678.458984375 440.927734375 671.749023438 444.41015625 667.336914062 449.844726562 c 0
 667.3125 449.836914062 624.84765625 502.163085938 624.84765625 502.163085938 c 2
 621.486328125 506.30078125 619.47265625 511.573242188 619.47265625 517.314453125 c 0
 619.47265625 522.150390625 620.908203125 526.697265625 623.368164062 530.470703125 c 1
 623.362304688 530.4296875 697.604492188 644.513671875 697.604492188 644.513671875 c 2
 700.061566998 648.288267317 701.494140625 652.791992188 701.494140625 657.627929688 c 1
 746.579101562 675 769.579101562 562 825.436523438 635 c 1
EndSplineSet
EndChar

StartChar: yacute
Encoding: 253 253 52
Width: 1016
Flags: HW
LayerCount: 2
Fore
SplineSet
521.893554688 -168.291015625 m 6
 521.893554688 -168.291015625 462.154296875 -56.7216796875 462.154296875 -56.7626953125 c 5
 460.911132812 -54.443359375 460.1875 -51.8759765625 460.1875 -49.1845703125 c 4
 460.1875 -38.5400390625 471.006835938 -29.9267578125 484.258789062 -29.9267578125 c 6
 603.73828125 -29.9267578125 l 4
 617.041015625 -29.9267578125 627.809570312 -38.5830078125 627.809570312 -49.1845703125 c 4
 627.809570312 -51.8759765625 627.135742188 -54.443359375 625.89453125 -56.7626953125 c 6
 625.89453125 -56.7626953125 566.155273438 -168.291015625 566.102539062 -168.291015625 c 4
 562.427734375 -175.165039062 553.9375 -179.96875 543.999023438 -179.96875 c 4
 534.110351562 -179.96875 525.569335938 -175.165039062 521.893554688 -168.291015625 c 6
674 608.263671875 m 1
 646.357421875 565.849609375 623.364257812 530.443359375 623.368164062 530.470703125 c 1
 620.908203125 526.697265625 619.47265625 522.150390625 619.47265625 517.314453125 c 0
 619.47265625 511.573242188 621.486328125 506.30078125 624.84765625 502.163085938 c 2
 624.84765625 502.163085938 667.3125 449.836914062 667.336914062 449.844726562 c 0
 671.749023438 444.41015625 678.458984375 440.927734375 686 440.927734375 c 0
 694.442382812 440.927734375 701.737304688 445.0859375 706.169921875 451.875 c 2
 706.169921875 451.875 693.635742188 432.676757812 729.045898438 487 c 1
 658.239257812 454 720.07421875 609.263671875 674 608.263671875 c 1
EndSplineSet
EndChar

StartChar: thorn
Encoding: 254 254 53
Width: 1016
Flags: HW
LayerCount: 2
Fore
SplineSet
521.893554688 -168.291015625 m 6
 521.893554688 -168.291015625 462.154296875 -56.7216796875 462.154296875 -56.7626953125 c 5
 460.911132812 -54.443359375 460.1875 -51.8759765625 460.1875 -49.1845703125 c 4
 460.1875 -38.5400390625 471.006835938 -29.9267578125 484.258789062 -29.9267578125 c 6
 603.73828125 -29.9267578125 l 4
 617.041015625 -29.9267578125 627.809570312 -38.5830078125 627.809570312 -49.1845703125 c 4
 627.809570312 -51.8759765625 627.135742188 -54.443359375 625.89453125 -56.7626953125 c 6
 625.89453125 -56.7626953125 566.155273438 -168.291015625 566.102539062 -168.291015625 c 4
 562.427734375 -175.165039062 553.9375 -179.96875 543.999023438 -179.96875 c 4
 534.110351562 -179.96875 525.569335938 -175.165039062 521.893554688 -168.291015625 c 6
EndSplineSet
EndChar

StartChar: ydieresis
Encoding: 255 255 54
Width: 1016
Flags: HW
LayerCount: 2
Fore
SplineSet
566.102539062 -168.291015625 m 0
 562.427734375 -175.165039063 553.9375 -179.96875 543.999023438 -179.96875 c 0
 534.110351562 -179.96875 525.600701792 -175.213823246 521.893554688 -168.291015625 c 2
 486.39453125 -102 l 1
 524.939152991 -155.444329284 549.273323188 -62.1666495235 601.659179688 -102 c 1
 566.102539062 -168.291015625 l 0
EndSplineSet
EndChar

StartChar: copyright
Encoding: 169 169 55
Width: 1089
Flags: HW
LayerCount: 2
Fore
SplineSet
566.083007812 782.1796875 m 2
 566.083007812 782.1796875 625.822265625 670.610351562 625.822265625 670.651367188 c 1
 627.065429688 668.33203125 627.7890625 665.764648438 627.7890625 663.073242188 c 0
 627.7890625 652.428710938 616.969726562 643.815429688 603.717773438 643.815429688 c 2
 484.23828125 643.815429688 l 0
 470.935546875 643.815429688 460.166992188 652.471679688 460.166992188 663.073242188 c 0
 460.166992188 665.764648438 460.840820312 668.33203125 462.08203125 670.651367188 c 2
 462.08203125 670.651367188 521.821289062 782.1796875 521.874023438 782.1796875 c 0
 525.548828125 789.053710938 534.0390625 793.857421875 543.977539062 793.857421875 c 0
 553.866210938 793.857421875 562.407226562 789.053710938 566.083007812 782.1796875 c 2
642.58984375 -67.6826171875 m 2
 655.869140625 -67.6826171875 666.650390625 -56.9013671875 666.650390625 -43.6220703125 c 0
 666.650390625 -37.880859375 664.62890625 -32.591796875 661.267578125 -28.4541015625 c 1
 661.275390625 -28.46875 265.208007812 459.2265625 265.208007812 459.2265625 c 2
 254.006835938 473.01953125 247.290039062 490.598632812 247.290039062 509.735351562 c 0
 247.290039062 554.000976562 283.200195312 589.993164062 327.466796875 589.993164062 c 0
 327.494140625 589.938476562 780.951171875 589.993164062 780.951171875 589.993164062 c 2
 825.216796875 589.993164062 861.154296875 554.055664062 861.154296875 509.7890625 c 0
 861.154296875 493.66796875 856.338867188 478.569335938 848.139648438 465.991210938 c 1
 848.189453125 466.07421875 705.981445312 247.447265625 705.981445312 247.447265625 c 2
 701.686523438 240.860351562 694.251953125 236.501953125 685.809570312 236.501953125 c 0
 678.270507812 236.501953125 671.55859375 239.984375 667.146484375 245.419921875 c 0
 667.124023438 245.411132812 624.657226562 297.735351562 624.657226562 297.735351562 c 2
 621.297851562 301.875 619.282226562 307.147460938 619.282226562 312.888671875 c 0
 619.282226562 317.724609375 620.719726562 322.26953125 623.177734375 326.044921875 c 1
 623.171875 326.00390625 697.494140625 440.505859375 697.494140625 440.505859375 c 2
 699.944335938 444.279296875 701.383789062 448.784179688 701.383789062 453.62109375 c 0
 701.383789062 466.900390625 690.6171875 477.706054688 677.3359375 477.706054688 c 0
 677.321289062 477.680664062 445.388671875 477.706054688 445.388671875 477.706054688 c 2
 432.107421875 477.706054688 421.326171875 466.924804688 421.326171875 453.645507812 c 0
 421.326171875 447.904296875 423.349609375 442.615234375 426.708984375 438.475585938 c 1
 426.701171875 438.4921875 822.770507812 -49.203125 822.770507812 -49.203125 c 2
 833.971679688 -62.99609375 840.686523438 -80.57421875 840.686523438 -99.7109375 c 0
 840.686523438 -143.977539062 804.776367188 -179.96875 760.509765625 -179.96875 c 0
 760.482421875 -179.915039062 307.028320312 -179.96875 307.028320312 -179.96875 c 2
 262.76171875 -179.96875 226.822265625 -144.03125 226.822265625 -99.765625 c 0
 226.822265625 -83.64453125 231.637695312 -68.5458984375 239.836914062 -55.966796875 c 1
 239.787109375 -56.05078125 381.806640625 162.013671875 381.806640625 162.013671875 c 2
 386.099609375 168.603515625 393.534179688 172.9609375 401.9765625 172.9609375 c 0
 409.517578125 172.9609375 416.227539062 169.478515625 420.639648438 164.043945312 c 0
 420.6640625 164.051757812 463.12890625 111.725585938 463.12890625 111.725585938 c 2
 466.490234375 107.587890625 468.50390625 102.315429688 468.50390625 96.57421875 c 0
 468.50390625 91.73828125 467.068359375 87.19140625 464.608398438 83.41796875 c 1
 464.614257812 83.458984375 390.484375 -30.482421875 390.484375 -30.482421875 c 2
 388.028320312 -34.2568359375 386.594726562 -38.7607421875 386.594726562 -43.5966796875 c 0
 386.594726562 -56.8759765625 397.361328125 -67.6826171875 410.640625 -67.6826171875 c 0
 410.655273438 -67.6591796875 642.58984375 -67.6826171875 642.58984375 -67.6826171875 c 2
EndSplineSet
EndChar

StartChar: c
Encoding: 99 99 56
Width: 1088
Flags: HWO
LayerCount: 2
Fore
SplineSet
276.208007812 162.668945312 m 0
 280.688476562 167.071289062 134.467773438 700.697265625 603.239257812 700.697265625 c 0
 1122.79394531 700.697265625 1080.89355469 -145.731445312 391.926757812 91.5234375 c 1
 391.926757812 91.5234375 257.8125 56.3837890625 167.485351562 40.7392578125 c 1
 210.330078125 89.0078125 272.198242188 158.659179688 276.208007812 162.668945312 c 0
177.626953125 211.409179688 m 0
 7.5859375 58.427734375 -30.9345703125 -68.296875 104.673828125 -68.296875 c 0
 184.073242188 -68.296875 345.859375 -26.396484375 400.259765625 -11.6171875 c 0
 702.52734375 -150.919921875 1062.49804688 54.025390625 1062.49804688 373.2734375 c 0
 1062.49804688 935.201171875 143.744140625 935.122070312 143.744140625 373.2734375 c 0
 143.744140625 315.885742188 155.850585938 261.249023438 177.626953125 211.409179688 c 0
EndSplineSet
EndChar
